<?xml version="1.0" encoding="UTF-8"?>
<svg id="Design" xmlns="http://www.w3.org/2000/svg" viewBox="0 0 493.47 694.64">
  <defs>
    <style>
      .cls-1 {
        fill: #9dd2f7;
      }

      .cls-2 {
        fill: #fbb422;
      }

      .cls-3 {
        fill: #40b5aa;
      }

      .cls-4 {
        fill: #fee2c5;
      }

      .cls-5 {
        fill: #ea575f;
      }

      .cls-6 {
        fill: #f49045;
      }

      .cls-7 {
        fill: #dbdbdb;
      }

      .cls-8 {
        fill: #fff;
        opacity: .5;
      }

      .cls-9 {
        fill: #f7c79a;
      }

      .cls-10 {
        fill: #c6c6c6;
      }

      .cls-11 {
        fill: #ff6d6f;
      }

      .cls-12 {
        fill: #ffa55c;
      }

      .cls-13 {
        fill: #83e182;
      }

      .cls-14 {
        opacity: .2;
      }

      .cls-14, .cls-15 {
        fill: #603226;
      }

      .cls-16 {
        fill: #bbc465;
      }

      .cls-17 {
        fill: #68b0d8;
      }

      .cls-18 {
        fill: #fffeee;
      }

      .cls-19 {
        fill: #ea9e18;
      }

      .cls-20 {
        fill: #d0dd84;
      }

      .cls-21 {
        fill: #6fcc6d;
      }

      .cls-22 {
        fill: #5dd1c8;
      }
    </style>
  </defs>
  <path class="cls-14" d="M492.65,564.55c-.16-8.76-.46-17.58-.74-26.11l-.2-5.9c-2.43-74.3-5.31-160.73-8.76-246.24-1.32-32.76-2.68-66.64-4.7-100.78l-.19-3.24c-1.66-28.67-3.54-61.17-28.77-86.46-18.32-18.37-38.26-34.19-55.35-47.24-.92-.7-1.93-1.49-3.03-2.36-11.89-9.29-31.79-24.85-52.28-24.85-2.1,0-4.15.16-6.15.47-7.17-3.15-14.15-4.41-19.41-4.87-2.42-.21-4.92-.32-7.43-.32-16.98,0-33.15,4.87-47.41,9.17-2.18.65-4.33,1.31-6.47,1.93-17.48,5.12-36.4,11.6-59.52,20.4-18.71,7.12-36.94,14.71-54.01,21.88-2.46,1.03-4.92,2.05-7.39,3.06-13.92,5.73-28.31,11.66-41.88,20.63-17.36,11.48-28.95,27.25-33.5,45.59-3.34,13.43-4.51,27.15-5.37,40.57-7.7,3.51-14.13,8.95-18.82,16.06-5.58,8.46-7.08,16.82-7.59,19.64-1.75,8.73-2.05,17.53-2.32,25.29-.1,2.88-.19,5.72-.37,8.47-.87,13.58-1.54,28.27-2.11,46.24-.71,22.51-.95,45.31-1.19,67.35-.07,6.28-.13,12.55-.21,18.83-.02,1.88-.17,4.21-.33,6.67-.67,10.4-1.51,23.35,4.38,35.38,4.85,9.9,12.13,15.35,19.21,18.47.06,5.23.24,10.67.63,16.14.47,6.67,1.11,15.95,4.7,24.83-6.75,12.14-6.56,25-6.42,34.62.02,1.27.04,2.54.04,3.79,0,4.44-.01,8.9-.03,13.36-.09,26.71-.19,54.33,3.81,81.73,2.75,18.83,14.17,33.68,30.55,39.74,12.82,4.74,25.95,7.25,38.65,9.67,3.36.64,6.69,1.28,9.98,1.95,27.07,5.55,55.85,10.28,90.56,14.87,31.89,4.22,63.9,7.41,93.96,10.31,8.26.8,15.24,1.33,22.47,1.33h0c10.54,0,19.97-1.21,28.81-3.7,13.54-3.81,25.94-10.54,36.87-16.47,3.24-1.76,6.45-3.5,9.64-5.14l42.75-21.95c1.6-.82,3.74-1.78,6-2.8,12.22-5.49,30.69-13.78,36.53-32.76,4.05-13.18,3.37-26.6,2.77-38.45-.16-3.13-.31-6.08-.36-8.83Z"/>
  <g>
    <path class="cls-18" d="M312.97,677.98c-7.23,0-14.21-.53-22.47-1.33-30.06-2.9-62.07-6.09-93.96-10.31-34.72-4.59-63.49-9.32-90.56-14.87-3.29-.67-6.62-1.31-9.98-1.95-12.7-2.42-25.83-4.93-38.65-9.67-16.38-6.06-27.8-20.91-30.55-39.74-4-27.4-3.91-55.02-3.81-81.73.01-4.47.03-8.92.03-13.36,0-1.26-.02-2.52-.04-3.79-.14-9.62-.32-22.48,6.42-34.62-3.59-8.88-4.23-18.16-4.7-24.83-.38-5.47-.56-10.9-.63-16.14-7.08-3.13-14.35-8.57-19.21-18.47-5.89-12.03-5.05-24.97-4.38-35.38.16-2.46.31-4.79.33-6.67.08-6.28.14-12.55.21-18.83.24-22.04.48-44.84,1.19-67.35.57-17.97,1.24-32.66,2.11-46.24.18-2.75.27-5.59.37-8.47.27-7.76.57-16.56,2.32-25.29.5-2.82,2.01-11.18,7.59-19.64,4.68-7.1,11.12-12.55,18.82-16.06.86-13.42,2.04-27.13,5.37-40.57,4.56-18.34,16.14-34.11,33.5-45.59,13.57-8.98,27.97-14.9,41.88-20.63,2.47-1.02,4.94-2.03,7.39-3.06,17.07-7.17,35.31-14.76,54.01-21.88,23.12-8.8,42.04-15.28,59.52-20.4,2.14-.62,4.3-1.27,6.47-1.93,14.27-4.3,30.43-9.17,47.41-9.17,2.51,0,5.01.11,7.43.32,5.25.46,12.23,1.72,19.41,4.87,2-.31,4.05-.47,6.16-.47,20.49,0,40.39,15.56,52.28,24.85,1.1.86,2.12,1.66,3.03,2.36,17.09,13.05,37.02,28.87,55.35,47.24,25.23,25.29,27.11,57.79,28.77,86.46l.19,3.24c2.02,34.14,3.38,68.02,4.7,100.78,3.44,85.51,6.33,171.94,8.76,246.24l.2,5.9c.29,8.53.58,17.35.74,26.11.05,2.75.2,5.7.36,8.83.6,11.84,1.28,25.27-2.78,38.45-5.84,18.99-24.31,27.28-36.53,32.76-2.26,1.02-4.39,1.97-6,2.8l-42.75,21.95c-3.2,1.64-6.41,3.38-9.64,5.14-10.94,5.93-23.34,12.66-36.87,16.47-8.84,2.49-18.26,3.7-28.81,3.7h0Z"/>
    <g>
      <path class="cls-2" d="M336.99,85.2c-.18,0-.36-.02-.54-.07-2.35-.65-4.88-.99-7.53-1.04-1.04-.01-1.91-.82-2-1.86-.22-2.46-.41-4.97-.6-7.51-.88-11.48-1.78-23.36-5.25-33.67-.21-.62-.11-1.3.27-1.83.38-.53.99-.85,1.64-.86h0c7.14,0,9,4.62,10.49,8.33,4.4,10.93,5.35,29.11,5.56,36.42.02.65-.27,1.26-.78,1.66-.36.28-.81.43-1.26.43Z"/>
      <path class="cls-2" d="M348.78,332.17c-.34,0-.68-.08-.99-.26-3.02-1.67-6.74-2.72-10.77-3.04-1.04-.08-1.85-.94-1.88-1.99-1.12-50.64-2.15-92.63-3.23-132.16-.03-.98.65-1.84,1.6-2.05,3.53-.77,6.78-2.14,9.68-4.08.34-.23.74-.34,1.13-.34.31,0,.62.07.9.21.65.32,1.08.97,1.13,1.7,2.84,44.98,3.62,90.81,4.37,135.14l.08,4.8c.01.73-.36,1.41-.99,1.78-.32.19-.69.29-1.05.29Z"/>
      <path class="cls-2" d="M291.54,506.77c-16.7,0-33.79-1.19-50.32-2.34-8.13-.57-16.54-1.15-24.74-1.58-49.33-2.59-99.11-7.85-147.24-12.93l-8.47-.9c-.64-.07-1.21-.43-1.53-.98-.33-.55-.38-1.22-.14-1.81,3.44-8.46,10.52-12.58,21.67-12.58.72,0,1.47.02,2.23.05,12.66.57,31.59,2.09,48.28,3.43,8.39.67,16.26,1.3,22.58,1.76,33.71,2.4,68,3.77,101.15,5.09,8.35.33,16.69.66,25.05,1.01,2.94.12,6.44.25,10.03.25,11.41,0,25.92-1.17,36.97-10.32,10.87-8.99,10.66-19.5,10.39-32.79l-.06-3.21c-.01-.92.6-1.74,1.49-1.99,4.08-1.15,7.7-3.14,10.75-5.95.38-.35.88-.54,1.38-.54.28,0,.57.06.84.18.74.33,1.22,1.08,1.2,1.9-.12,6.5-.16,13.28-.12,20.75.08,14.32-6.55,29.06-18.69,41.49-10.54,10.8-25.03,11.85-38.96,12-1.24.01-2.49.02-3.73.02Z"/>
      <path class="cls-4" d="M330.48,427.16c-1.07,0-2.17-.07-3.28-.2l-.36-.02c-10.33-.66-13.08-6.28-13.57-10.88-1.39-13.2-.98-30.74-.76-40.16.07-2.96.12-5.3.1-6.45.32-5.22.67-9.77,1.08-14.07.65-6.82,5.14-12.16,12.64-15.05,2.39-.92,4.68-1.39,6.8-1.39,8.27,0,13.66,6.89,13.75,17.56.06,8.29.23,16.72.4,24.88.1,4.86.2,9.71.27,14.57.02,1.46.12,3.04.22,4.69.5,8.2,1.11,18.4-6.45,23.51-2.93,1.98-6.68,3.03-10.85,3.03Z"/>
      <path class="cls-4" d="M320.56,182.61c-9.01,0-9.95-7.22-10.26-9.59-.58-4.43-1.2-11.84-1.83-22.03l-.05-.86c-.57-8.26-.87-33.74-.64-38.17.45-8.56,6.24-12.82,10.55-15.29,2.31-1.32,5.06-1.99,8.17-1.99,1.87,0,3.85.24,5.88.72,7.89,1.84,8.31,10.1,8.58,15.56.42,8.37.96,16.84,1.47,25.02.3,4.8.61,9.6.89,14.4.09,1.44.25,3.02.43,4.7.88,8.29,1.97,18.62-5.17,23.9-4.49,3.32-11.15,3.47-16.49,3.6l-1.54.03Z"/>
      <path class="cls-11" d="M290.95,475.26c-6.05,0-12.12-.51-18-1-4.37-.37-8.49-.71-12.07-.79-36.45-.79-73.12-3.14-107.32-5.56-5.32-.38-10.63-.79-15.95-1.21-10.15-.8-20.64-1.62-30.96-2.13-2.06-.1-4.13-.18-6.19-.26-10.37-.41-21.09-.84-31.43-3.95-10.53-3.17-10.87-12.83-11.17-21.35-.04-1.13-.08-2.25-.14-3.36-.48-8.51-.36-16.99-.2-24.94.02-1.04.83-1.9,1.87-1.99,2.81-.23,5.45-.79,7.85-1.68.23-.08.47-.12.7-.12.82,0,1.6.5,1.91,1.32,5.08,13.46,22.06,13.9,37.04,14.3,2.09.05,4.12.11,6.06.19,7.79.35,27.52,1.68,46.6,2.97,19.86,1.34,40.39,2.72,47.94,3.05l1.12.04c14.55.62,29.59,1.25,44.32,1.25h.27c11.61,0,20.52-3.27,28.03-10.26,1.91-1.78,4.24-5.47,4.49-12.95.38-11.67-.39-31.49-.85-43.33-.15-3.77-.26-6.64-.28-8.04-.79-42-1.86-86.89-3.47-145.56-.56-20.39-2.77-74.05-5.71-100.66-1.87-16.93-6.07-26.86-21.95-27.55-.73-.03-1.47-.05-2.2-.05-9.73,0-19.42,2.74-28.81,5.38l-3,.84c-11.53,3.22-23.71,7.22-39.5,12.97-21.67,7.9-44.44,17.17-69.61,28.33-11.84,5.25-27.92,14.1-30.87,30.28-1.43,7.82-1.99,15.89-2.35,22.75-.03.63-.35,1.2-.87,1.56-.35.24-.75.37-1.17.37-.2,0-.4-.03-.6-.09-1.26-.39-2.54-.7-3.9-.96-.56-.1-1.11-.19-1.67-.26l-.71-.1c-.16-.03-.31-.07-.46-.13l-.51-.19c-.86-.32-1.52-1.2-1.45-2.12.98-12.33,2.31-24.82,3.6-36.89l.44-4.12c1.72-16.2,9.29-27.32,25.29-37.18,9.35-5.76,19.73-9.99,29.77-14.09,2.6-1.06,5.2-2.12,7.77-3.2,17.54-7.38,32.24-13.38,46.26-18.88,33.12-12.98,62.98-22.71,91.3-29.74,6.13-1.52,13.34-3.08,20.33-3.08,9.09,0,15.42,2.73,18.82,8.12,2.41,3.82,2.95,9.44,3.39,13.96.11,1.19.22,2.32.36,3.33,1.03,7.75,2,16.01,3.05,25.99.1.91-.43,1.78-1.29,2.11-2.61,1.01-4.95,2.25-6.94,3.7-10.85,7.87-11.19,19.6-11.55,32.03-.16,2.28,1.18,22.06,3.95,54.42.06.33.1.8.15,1.36.37,4.39,1.26,14.67,18.44,14.68,1.1,0,2.01.88,2.04,1.98,1.08,39.9,2.12,82.37,3.26,133.68.02.91-.57,1.73-1.44,2-3.09.94-5.95,2.25-8.27,3.79-3.85,2.55-6.67,5.8-8.6,9.94-2.13,4.58-3.66,50.47-1.88,73.04.51,6.5,1.14,9.17,1.58,10.26,1.95,4.9,8.04,8.17,18.63,10.01l.49.06c.98.16,1.7.99,1.71,1.98l.03,1.75c.07,4.36.14,8.71.12,13.07-.02,8.67-6.79,12.8-11.73,15.81-5.69,3.47-13.28,5.08-23.9,5.08Z"/>
      <path class="cls-4" d="M97.28,416.96c-2.57-.19-4.65-.4-6.54-.66-7.46-1.04-14.36-2.71-16.8-11.75-.19-.7,0-1.45.52-1.97,3.77-3.8,5.93-9.45,6.79-17.78,2.21-21.5,2.3-43.85,2.4-65.46.04-8.07.07-16.42.22-24.56.33-18.14.57-36.29.82-54.44.17-12.25.33-24.51.52-36.76.11-7.29-.76-11.66-2.91-14.61-.28-.38-.41-.84-.39-1.31l.05-.92c.15-2.85.29-5.71.48-8.57.08-1.24.15-2.51.22-3.81.44-8.47.94-18.07,6.68-25.11,7.53-9.24,19.48-14.24,30.01-18.66l2.69-1.13c15.2-6.43,31.56-13.26,48.24-19.72,14.35-5.55,28.87-10.59,43.18-14.96,1.86-.57,3.91-1.25,6.1-1.98,8.93-2.97,20.03-6.67,29.97-6.67,6.39,0,11.63,1.58,15.58,4.69,2.15,1.69,3.52,4.56,4.31,9.04.19,1.05-.46,2.06-1.49,2.33-22.55,5.85-53.05,15.42-73.24,21.76-3.64,1.14-6.91,2.17-9.67,3.03-3.5,1.09-7.02,2.12-10.55,3.15-10.12,2.96-20.58,6.02-30.24,10.51-2.7,1.26-5.57,2.44-8.6,3.69-10.82,4.47-23.09,9.53-28.88,19.13-6.51,10.79-6.33,26.48-6.16,40.33.04,3.37.08,6.56.02,9.57-.31,15.39-.49,30.33-.62,42.92-.6,56.93-.77,108.28-.51,157v1.62c.01.57-.22,1.11-.63,1.5-.38.35-.88.55-1.39.55-.05,0-.1,0-.15,0Z"/>
      <path class="cls-22" d="M163.99,192.35c-.43,0-.85-.13-1.21-.4-.51-.38-.82-.98-.83-1.62-.04-3.3-.26-9.53-.64-18-.12-2.73.97-5.38,3.16-7.67,3.22-3.37,8.54-5.54,13.56-5.54,2.68,0,5.21.62,7.29,1.79.65.36,1.05,1.05,1.04,1.8-.08,8.6.51,15.32,1.82,20.54.26,1.06-.36,2.14-1.41,2.45-7.41,2.16-14.81,4.35-22.2,6.57-.19.06-.39.08-.58.08Z"/>
      <path class="cls-11" d="M142.52,218.31c-2.92,0-6.68-.57-7.96-3.31-.92-1.97-.25-4.35,2.02-7.06,2.31-2.77,13.91-6.53,33.18-12.07,1.77-.51,3.31-.95,4.49-1.3,31.19-9.24,64.09-18.2,97.79-26.62.01,0,.31-.12.32-.12.23-.09.48-.13.72-.13.39,0,.79.12,1.12.34.55.36.89.96.91,1.62.19,4.77.36,9.54.53,14.31l.04,1.08c.03.93-.57,1.76-1.46,2.03-35.6,10.56-73.04,19.98-111.26,28.01l-1.88.4c-5.56,1.18-11.31,2.4-17.09,2.79-.46.03-.95.05-1.47.05Z"/>
      <path class="cls-2" d="M191.31,184.31c-.42,0-.83-.13-1.18-.38-.51-.36-.82-.93-.86-1.55-.17-3.29-.26-5.81-.33-8.01-.07-2.08-.13-3.86-.25-5.74-.7-10.93,3.81-14,6.51-15.84.3-.2.58-.39.83-.59,3.59-2.74,7.72-4.31,11.33-4.31,2.49,0,4.68.7,6.52,2.08.58.44.89,1.15.8,1.87-.12,1.02-.18,2.13-.19,3.31-.06,5.38.05,13.33,1.64,20.19.25,1.06-.39,2.13-1.44,2.42-7.61,2.11-15.22,4.27-22.81,6.46-.19.05-.38.08-.56.08Z"/>
      <path class="cls-1" d="M219.47,176.38c-.41,0-.82-.13-1.17-.37-.5-.35-.81-.9-.86-1.51-.51-6.45-.57-9.43-.64-12.31-.03-1.36-.06-2.74-.14-4.49-.06-1.3-.18-7.97,3.1-11.63,3.28-3.65,8.56-5.92,13.79-5.92,3.31,0,6.26.91,8.52,2.64.03.02.22.12.25.14.6.38.97,1.05.96,1.76v.24c-.12,9.68.6,16.97,2.19,22.42.16.53.09,1.1-.19,1.58-.27.48-.73.82-1.26.96-7.64,1.99-15.49,4.09-24.01,6.42-.18.05-.36.07-.54.07Z"/>
      <path class="cls-20" d="M248.04,168.79c-.42,0-.83-.13-1.17-.37-.49-.34-.8-.88-.86-1.47-2.11-22.58-.94-28.23,2.3-31.76,3.32-3.61,8.53-5.85,13.59-5.85,4.23,0,7.97,1.51,10.8,4.35.34.34.54.79.59,1.26.1,1.22.21,2.44.3,3.67.17,2.19.31,4.38.42,6.59.23,4.65.43,9.3.63,13.95l.09,2.08c.03.68-.28,1.32-.82,1.73-.35.26-.78.4-1.21.4-.23,0-.46-.04-.68-.12-.25-.08-.5-.13-.76-.13-.21,0-.43.03-.66.08-6.6,1.6-13.82,3.41-22.06,5.53-.17.04-.34.07-.51.07Z"/>
      <path class="cls-7" d="M157.08,420.89c-4.92-.35-9.84-.72-14.76-1.08-9.69-.72-19.71-1.47-29.56-2.07-2.41-.15-4.82-.25-7.23-.34l-.73-.03c-1.1-.05-1.97-.95-1.96-2.06.32-35.53.78-71.66,1.22-106.59l.68-54.83c.15-11.41.29-22.82.4-34.22.03-3.38,0-6.82-.04-10.29-.14-13.11-.29-26.67,3.24-39.2,1.23-4.36,3.88-8.17,8.1-11.63.37-.3.83-.46,1.29-.46.21,0,.42.03.62.1,3.37,1.08,6.74,2.25,10.06,3.44-2.46-.97-4.83-1.81-7.11-2.5-.76-.23-1.32-.89-1.43-1.69-.11-.79.26-1.57.95-2,5.31-3.3,11.58-5.79,17.11-7.99,3.12-1.24,6.06-2.41,8.55-3.6,9.19-4.41,19.33-7.16,29.13-9.81,4.06-1.1,8.27-2.24,12.28-3.47,3.06-.94,6.56-2.02,10.43-3.22,17.37-5.37,43.61-13.47,69.48-20.65.18-.05.36-.07.54-.07.4,0,.8.12,1.14.35.49.33.82.86.89,1.45,0,0,.04.32.04.33.75,5.64,1.36,11.27,1.82,15.54.07.68-.2,1.36-.73,1.79-.37.3-.83.46-1.29.46-.2,0-.41-.03-.61-.09-1.21-.38-2.55-.57-3.97-.57-6.68,0-14.01,4.07-18.26,7.56-.92.75-1.67,1.68-2.31,2.85-.37.68-1.07,1.06-1.79,1.06-.3,0-.6-.07-.89-.21-1.6-.78-3.46-1.18-5.52-1.18-6.69,0-14.01,4.07-18.26,7.56-.35.29-.66.61-.96.93-.4.43-.95.66-1.5.66-.36,0-.73-.09-1.05-.29-1.79-1.08-3.92-1.63-6.34-1.63-6.68,0-14.01,4.07-18.26,7.56-1.15.94-2.02,2.1-2.68,3.54-.34.74-1.08,1.19-1.86,1.19-.2,0-.41-.03-.61-.09-1.22-.38-2.56-.58-4-.58-6.68,0-14.01,4.07-18.27,7.55-2.78,2.28-4.05,5.87-4.11,11.63-.08,7.17.3,12.97,1.14,17.71.18,1.02-.43,2.01-1.42,2.31l-1.47.44c-1.38.42-2.9.83-4.51,1.27-10.69,2.92-24.01,6.55-24.01,18,0,8.39,10.55,9.29,15.09,9.29,1.59,0,3.22-.11,4.71-.32,18.6-2.59,37.31-7.36,55.4-11.97,3.51-.89,7.01-1.79,10.5-2.66,19.35-4.85,39.35-9.86,58.98-15.61.19-.05.38-.08.57-.08.42,0,.84.13,1.2.39.51.37.82.95.84,1.58.17,5.06.31,10.13.46,15.19.02.66-.28,1.29-.81,1.68-.36.27-.79.41-1.23.41-.21,0-.41-.03-.61-.09-1.42-.45-3-.67-4.7-.67-5.95,0-11.94,2.64-15.55,5.12-.5.34-.99.73-1.45,1.15-.39.35-.88.53-1.37.53-.38,0-.76-.1-1.1-.32-1.84-1.17-4.22-1.76-7.09-1.76-6.22,0-13.25,2.82-17.14,5.43-.88.59-1.69,1.31-2.48,2.2-.4.45-.96.69-1.53.69-.39,0-.77-.11-1.12-.33-1.85-1.21-4.26-1.82-7.18-1.82-6.22,0-13.25,2.82-17.15,5.44-.64.43-1.28.97-1.98,1.69-.4.41-.92.61-1.45.61-.5,0-1-.18-1.39-.55-1.95-1.83-4.77-2.76-8.38-2.76-6.22,0-13.25,2.82-17.15,5.44-7.18,4.82-7.67,15.58-5.91,23.32.13.57,0,1.16-.33,1.63-.34.47-.86.78-1.44.85-1.08.12-2.22.23-3.37.34-14.02,1.39-24.8,3.24-25.64,13.07-.23,2.7.49,4.95,2.2,6.88,3.32,3.77,10.08,5.66,15.29,5.87,2.9.11,5.94.17,9.03.17,15.05,0,30.45-1.36,45.35-2.67,4.35-.38,8.69-.76,13.01-1.11,20.43-1.65,41.41-3.35,61.92-5.85.08,0,.16-.01.25-.01.49,0,.96.18,1.34.5.44.38.69.92.7,1.5l.23,11.99c.01.64-.28,1.25-.78,1.65-.36.28-.81.43-1.26.43-.18,0-.35-.02-.53-.07-1.35-.36-2.86-.55-4.5-.55-6.71,0-14.01,3-18.22,5.58-.33.2-.7.3-1.06.3-.68,0-1.34-.34-1.73-.95-.74-1.17-2.36-1.81-3.6-2.13-1.47-.39-3.25-.58-5.3-.58-6.82,0-15.48,2.21-19.71,5.03-.38.25-.71.52-1.04.79-.37.31-.83.47-1.31.47-.19,0-.37-.03-.56-.08-.65-.19-1.16-.68-1.38-1.32-.17-.51-.5-.96-.99-1.32-1.84-1.37-4.52-2.09-7.74-2.09-5.74,0-12.77,2.3-17.11,5.59-.36.28-.8.42-1.23.42s-.9-.15-1.27-.45c-.03-.03-.09-.08-.14-.12-1.84-1.33-4.49-2.04-7.67-2.04-6.91,0-14.34,3.17-17.82,6.15-3.08,2.63-4.25,5.57-4.15,10.47.06,3.15.23,7.24,1.02,10.93.13.59-.02,1.21-.4,1.69-.38.47-.94.76-1.55.77l-2.21.04c-11.35.22-23.08.45-27.7,11.58-.8,1.93-.73,3.65.21,5.28,2.6,4.49,11.35,7.48,16.74,8.18,17.84,2.3,36.42,2.31,54.4,2.33,4.36,0,8.71,0,13.04.04h1.35c9.01.08,18.04.16,27.06.16,13.8,0,25.14-.18,35.68-.55.11,0,.21-.03.3-.05.12-.02.25-.03.37-.03.48,0,.96.16,1.32.46.46.38.78.93.79,1.53l.34,17.13c.01.65-.28,1.26-.8,1.66-.36.28-.8.42-1.24.42-.19,0-.39-.03-.57-.08-1.81-.53-3.69-.81-5.45-.81-.67,0-1.31.04-1.89.13-3.26.47-7.09,2.77-9.32,5.58-.4.51-1,.77-1.6.77-.4,0-.81-.12-1.16-.36-1.81-1.26-4.23-2.15-6.14-2.79-3.35-1.12-6.1-1.67-8.39-1.67-3.35,0-5.16,1.21-6.87,2.55-.37.29-.81.44-1.26.44-.38,0-.76-.1-1.09-.31-1.76-1.12-3.98-1.92-5.71-2.5-2.03-.68-4.19-1.04-6.24-1.04-2.48,0-6.02.52-8.78,3.02-.39.35-.88.53-1.37.53-.46,0-.92-.16-1.3-.47-1.81-1.5-4.57-2.53-6.77-3.27-2.06-.69-4.25-1.05-6.33-1.05-3.1,0-5.83.8-7.9,2.31-.36.26-.78.39-1.2.39-.47,0-.94-.16-1.31-.48-1.52-1.28-4.11-2.31-7.29-2.9-1.28-.24-2.59-.36-3.88-.36-2.61,0-5.07.5-7.13,1.44-5.21,2.38-6.96,6.15-8.71,13.17-2.08,8.35-1.58,18.54-1.13,27.53.07,1.42.14,2.81.19,4.16.02.58-.2,1.14-.62,1.55-.38.37-.89.57-1.42.57-.05,0-.09,0-.14,0Z"/>
      <path class="cls-12" d="M163.72,256.7c-.46,0-.91-.16-1.27-.45-.43-.34-.7-.85-.76-1.4-.09-.88-.2-1.78-.31-2.67-.69-5.6-1.48-11.94,4.12-15.92,3.56-2.52,9.8-5.07,15.73-5.07,3.16,0,5.81.73,7.9,2.16,0,0-.01-.01,0-.01,0,0,.07.04.13.07.78.48,1.14,1.42.89,2.3-1.28,4.44-1.26,10.05.06,15.4.14.57.03,1.17-.3,1.64-.33.48-.85.8-1.43.87-8.17.98-16.32,2-24.48,3.05-.09,0-.17.02-.26.02Z"/>
      <path class="cls-11" d="M145.17,278.57c-7.26,0-12.57-2.69-12.91-6.55-.14-1.66.55-5.7,10.05-7.36,2.14-.42,4.36-.77,6.56-1.04,9.71-1.35,19.36-2.56,27.5-3.57,31.55-3.9,64.83-7.28,98.91-10.04.06,0,.11,0,.17,0,.5,0,.99.19,1.37.52.42.38.66.91.67,1.47l.31,15.09c.02,1.04-.75,1.94-1.79,2.06-35.04,4.31-72.49,7.38-111.33,9.14-5.49.25-10.98.27-16.6.27h-2.93Z"/>
      <path class="cls-1" d="M194.14,252.96c-.47,0-.93-.16-1.29-.46-.43-.35-.69-.86-.74-1.41-.09-1.09-.22-2.2-.36-3.31-.69-5.6-1.48-11.94,4.12-15.92,3.55-2.52,9.78-5.06,15.71-5.06,2.57,0,4.82.49,6.7,1.44.84.43,1.27,1.37,1.06,2.29-1.21,5.05-.81,11.41,1.06,17.02.2.59.12,1.23-.22,1.75-.33.52-.88.86-1.5.92-8.11.86-16.21,1.78-24.3,2.73-.08,0-.16.02-.24.02Z"/>
      <path class="cls-22" d="M223.66,249.69c-.52,0-1.02-.2-1.4-.55-.43-.41-.67-.98-.64-1.57.08-1.83-.17-3.84-.43-5.97-.69-5.59-1.47-11.93,4.13-15.91,3.54-2.51,9.77-5.05,15.7-5.05,2.1,0,4,.33,5.66.97,1,.39,1.52,1.49,1.2,2.51-1.86,5.91-1.31,13.92,1.4,20.43.25.6.2,1.28-.14,1.84-.33.56-.91.92-1.56.98-7.29.66-15.05,1.42-23.7,2.32-.07,0-.14.01-.21.01Z"/>
      <path class="cls-1" d="M251.47,247.01c-.59,0-1.15-.25-1.54-.71-.43-.5-.59-1.17-.44-1.81.68-2.85.34-5.88-.01-9.09-.35-3.13-.71-6.36-.13-9.66.14-.77.43-1.53.86-2.26.18-.31.44-.56.75-.74.51-.29.96-.76,1.21-1.28.14-.29.36-.54.62-.74,3.35-2.47,8.42-3.73,11.95-4.47,1.49-.31,2.7-.45,3.82-.45,2.98,0,5.41,1.08,7.65,3.41.35.37.55.85.57,1.36.2,7.46.38,14.93.54,22.4.02,1.08-.81,2-1.89,2.08-7.6.56-15.6,1.22-23.77,1.94-.06,0-.12,0-.18,0Z"/>
      <path class="cls-1" d="M163.62,326.51c-1.06,0-1.95-.82-2.03-1.88-.07-.99-.19-2.05-.31-3.13-.6-5.54-1.29-11.82,2.55-14.73,3.17-2.4,10.77-5.08,16.61-5.08,2.3,0,4.19.42,5.61,1.23.79.45,1.19,1.38.96,2.27-.34,1.35-.49,2.89-.46,4.72.08,4.21.34,9.07,1.58,13.17.18.61.08,1.27-.29,1.78-.37.52-.96.83-1.59.85-7.52.24-15.03.5-22.55.8-.03,0-.05,0-.08,0Z"/>
      <path class="cls-11" d="M229.31,349.6c-22.28,0-45.17-.54-68.04-1.61l-2.13-.1c-5.61-.25-11.41-.51-17.04-1.56-2.62-.49-7.19-1.79-8.36-4.92-.4-1.08-.55-2.79,1.03-4.79,3.44-4.33,9.46-4.46,14.3-4.56.77-.02,1.52-.03,2.22-.06,9.47-.45,18.82-.79,25.91-1.03,25.55-.88,52.22-1.32,79.25-1.32,6.87,0,13.74.03,20.61.08,1.1,0,2,.89,2.02,2l.3,14.99c.01.57-.21,1.12-.62,1.51-.38.37-.89.57-1.41.57-.04,0-.35-.02-.37-.02-15.64.54-31.65.82-47.66.82Z"/>
      <path class="cls-22" d="M191.13,325.55c-.54,0-1.05-.21-1.43-.59-.4-.39-.62-.93-.61-1.49.03-1.5-.18-3.39-.39-5.39-.6-5.54-1.28-11.83,2.55-14.73,3.2-2.42,11.42-5.79,17.54-5.79,4.86,0,7.05,2.08,8.02,3.83.27.49.33,1.06.17,1.59-.37,1.21-.62,2.55-.73,3.98-.37,4.77.19,10.83,1.43,15.44.16.61.04,1.25-.34,1.75-.38.5-.96.8-1.59.81-8.19.16-16.37.35-24.56.59h-.06Z"/>
      <path class="cls-12" d="M221.02,324.86c-1.11,0-2.02-.89-2.04-2-.03-1.73-.28-3.64-.53-5.65-.69-5.38-1.4-10.95,1.65-14.85,3.07-3.92,12.81-6.66,19.62-6.66,3.19,0,5.6.59,7.15,1.74,0,0,.29.16.3.17.93.53,1.29,1.68.83,2.64-.75,1.58-1.2,3.43-1.37,5.66-.38,5.01.26,11.47,1.59,16.09.18.61.06,1.28-.32,1.79-.38.51-.99.82-1.62.82-8.42.03-16.91.11-25.23.25h-.03Z"/>
      <path class="cls-2" d="M276.84,324.77c-7.88-.11-16.08-.18-24.36-.18h-1.06c-.55,0-1.07-.22-1.45-.61-.38-.39-.6-.92-.58-1.46.03-1.9-.24-4.06-.54-6.36-.69-5.38-1.4-10.95,1.65-14.84,3.07-3.93,12.81-6.66,19.62-6.66,3.19,0,5.6.59,7.16,1.74.04.02.15.08.19.1.58.37.94,1,.95,1.69.16,8.17.32,16.34.49,24.5.01.55-.2,1.09-.59,1.48-.38.38-.9.6-1.45.6h-.03Z"/>
      <path class="cls-12" d="M276.98,392.07c-1.96,0-11.87-.24-13.86-5.04-.59-1.41-.7-3.69,2.11-6.5,2-2,4.47-3.02,7.34-3.02,2.25,0,4.43.62,6.08,1.16.82.27,1.39,1.03,1.4,1.9,0,.28.21,7,.33,9.33.06,1.12-.81,2.08-1.93,2.14-.46.02-.95.04-1.46.04Z"/>
      <path class="cls-12" d="M263.13,423.94c-.46,0-.91-.16-1.27-.45-.48-.38-.76-.96-.77-1.57-.08-5.96-.18-12.89-.41-19.74-.1-2.88,0-5.84.12-8.38.03-.69.4-1.31,1-1.66.32-.19.68-.28,1.04-.28.31,0,.62.07.9.21,1.87.92,4.24,1.53,6.85,1.75.71.06,1.66.11,2.72.11,1.78,0,3.5-.13,4.96-.38.11-.02.23-.03.34-.03.46,0,.92.16,1.28.45.46.37.73.91.76,1.5.23,5.38.33,11.13-.46,16.66-.8,5.56-6.55,9.63-16.63,11.77-.14.03-.28.04-.42.04Z"/>
      <path class="cls-22" d="M248.67,425.25c-3.51,0-7.01-.15-9.98-.31-1.08-.05-1.92-.94-1.93-2.01-.08-7.29-.18-15.05-.45-22.76-.05-1.53-.05-3.19,0-5.24.02-.69.38-1.32.96-1.68.33-.2.7-.3,1.07-.3.29,0,.58.06.86.19.36.17.58.27.81.36,1.48.58,5.03,1.2,8.71,1.2,1.71,0,3.26-.13,4.62-.38.12-.02.25-.04.37-.04.5,0,.99.19,1.37.53.47.43.72,1.05.66,1.69-.59,6.57-.24,13.74.07,20.06.11,2.25.22,4.41.28,6.45.03,1.11-.82,2.04-1.92,2.1-1.74.1-3.54.14-5.51.14Z"/>
      <path class="cls-22" d="M252.99,392.53c-.95,0-1.88-.04-2.51-.07l-.57-.02c-3.23-.06-6.61-.87-9.78-2.32-1.62-.75-2.65-2.12-2.82-3.78-.17-1.73.63-3.43,2.14-4.53,1.49-1.09,3.28-1.24,4.98-1.24h.48c1,0,8.54.12,12.12,2.47.77.5,1.1,1.46.82,2.33-.36,1.13-.93,3.63-1.3,5.48-.18.9-.93,1.56-1.85,1.63-.54.04-1.13.06-1.73.06Z"/>
      <path class="cls-2" d="M229.49,424.49c-.86-.03-1.72-.07-2.58-.09-4.26-.1-8.51-.23-12.77-.38-1.09-.04-1.95-.93-1.97-2.01-.07-5.93-.17-12.82-.4-19.6-.11-3.26.04-6.61.17-9.56.03-.71.43-1.35,1.05-1.69.31-.17.65-.26.99-.26s.69.09,1,.26c.61.34,1.17.62,1.72.83,1.47.58,5.01,1.19,8.68,1.19,1.3,0,2.53-.07,3.65-.22.09-.01.18-.02.27-.02.52,0,1.02.2,1.4.56.45.43.68,1.03.63,1.64-.51,6.38-.18,13.29.12,19.38.14,2.78.26,5.44.31,7.89,0,.56-.21,1.1-.61,1.49-.38.38-.89.58-1.43.58-.03,0-.24,0-.24,0Z"/>
      <path class="cls-2" d="M229.69,391.03c-.96,0-1.91-.04-2.55-.07l-.56-.02c-3.23-.06-6.61-.86-9.78-2.32-1.62-.75-2.65-2.13-2.81-3.78-.18-1.73.62-3.42,2.14-4.54.6-.44,2.32-1.45,5.38-1.45,3.31,0,6.96,1.19,10.84,3.55.81.49,1.17,1.47.88,2.37-.45,1.4-.83,2.91-1.15,4.6-.18.95-1,1.65-1.98,1.66h-.42Z"/>
      <path class="cls-12" d="M205.01,423.65c-5.06-.22-10.11-.46-15.17-.73-1.07-.06-1.91-.94-1.93-2.01-.08-6.63-.18-13.7-.42-20.72-.1-2.92.01-5.91.12-8.48.03-.71.42-1.34,1.04-1.69.31-.17.65-.26,1-.26s.68.09.98.25c.51.28,1.03.54,1.6.76,1.47.58,5.02,1.19,8.69,1.19,1.41,0,2.73-.08,3.91-.26.1-.01.2-.02.29-.02.53,0,1.05.21,1.44.59.45.45.67,1.09.59,1.73-1.01,7.33-.6,15.58-.24,22.85.08,1.61.16,3.17.21,4.68.02.57-.19,1.12-.6,1.53-.38.38-.9.59-1.44.59h-.09Z"/>
      <path class="cls-12" d="M205.18,389.8c-.94,0-1.87-.04-2.5-.06l-.56-.02c-3.23-.06-6.61-.87-9.78-2.33-1.62-.75-2.65-2.12-2.81-3.78-.17-1.73.62-3.43,2.14-4.54,1.49-1.09,3.28-1.24,4.98-1.24h.48c3.54.02,9.26,1.69,12.07,4.05.69.59.92,1.56.55,2.39-.55,1.23-1.03,2.58-1.43,4.01-.24.84-.99,1.44-1.87,1.48-.41.02-.84.03-1.27.03Z"/>
      <path class="cls-13" d="M180.74,422.41c-3.91-.23-7.82-.46-11.74-.71l-2.79-.19c-1.06-.07-1.89-.95-1.9-2.01-.08-6.17-.18-12.78-.4-19.32-.1-2.91,0-5.84.12-8.37.03-.67.39-1.28.96-1.64.33-.21.7-.31,1.08-.31.27,0,.55.05.81.17,2.72,1.18,6.19,1.83,9.76,1.83,1.27,0,2.51-.09,3.67-.25.1-.01.19-.02.29-.02.52,0,1.03.2,1.41.57.45.43.68,1.05.62,1.67-.68,6.74-.31,14.15.01,20.69.1,2,.2,3.94.26,5.79.02.57-.2,1.13-.61,1.53-.38.37-.89.58-1.42.58-.04,0-.08,0-.12,0Z"/>
      <path class="cls-13" d="M181.21,390.1c-9.22,0-14.14-1.99-14.62-5.91-.39-3.21,2.8-6.31,5.91-7.08.9-.22,1.87-.33,2.89-.33,2.08,0,4.35.44,7.15,1.4.81.28,1.53.67,2.17,1.02.94.51,1.33,1.67.88,2.64-.9,1.97-1.62,4.21-2.13,6.65-.2.94-1.03,1.62-1.99,1.62h-.25Z"/>
      <path class="cls-7" d="M55.58,398.04c-3.5,0-7.04-.53-9.88-.96l-.72-.11c-10.39-1.55-11.14-8.26-11.01-16.22.16-9.84.28-19.68.39-29.51l.03-3.06c.23-20.07.46-40.81.98-61.22.56-22.08,1.6-43.9,3.09-64.87.11-1.52.15-3.16.2-4.84.25-9,.57-20.2,10.78-23.75.17-.06.36-.1.54-.11,3.02-.19,5.73-.28,8.3-.28,2.7,0,5.21.1,7.66.3,8.78.73,8.51,6.99,8.29,12.02-.03.73-.06,1.49-.08,2.26l-.23,16.03-.27,19.88c-.22,15.77-.43,31.55-.7,47.33-.41,24.22-.94,46.25-1.63,67.34-.09,2.69-.12,5.42-.14,8.17-.07,7.35-.15,14.95-1.4,22.22-1.07,6.23-5.85,9.39-14.2,9.39Z"/>
      <path class="cls-11" d="M312.34,644.59c-6.56,0-13.25-.59-20.08-1.25-18.33-1.76-34.48-3.4-49.37-5.01-33.98-3.67-64.27-7.76-92.6-12.53-13.87-2.33-28.28-5.06-44.05-8.35-6.53-1.36-13.49-2.91-22.57-5-1.14-.26-2.3-.5-3.48-.74-7.5-1.53-15.99-3.25-19.27-12.02-3.95-10.57-3.94-23.8-3.92-35.48,0-3.37,0-6.56-.08-9.6-.45-16.33-.51-32.79-.53-49.62,0-5.32,1.01-8.81,3.2-11.01,1.82-1.82,4.32-2.67,7.87-2.67,1.37,0,2.94.12,4.79.39,46.67,6.59,97.26,10.95,164.03,14.15,14.6.7,28.81,1.58,44.52,2.57,4.49.28,9.8.57,15.07.57,6.42,0,11.99-.43,17.03-1.31.11-.02.23-.03.35-.03.52,0,1.02.2,1.4.55.47.44.7,1.08.63,1.71-2,17.48,1.25,91.63,4.83,110.2.02.11.04.21.06.31.01-.17.02-.35.02-.53.5-19.42-1.94-93.53-3.96-111.04-.12-1.02.53-1.96,1.52-2.21l.73-.17c.28-.06.57-.13.85-.21,11.66-3.29,23.46-14.51,30.08-28.58.34-.73,1.07-1.17,1.85-1.17.14,0,.28.01.42.04.93.2,1.59,1.01,1.62,1.95l.24,10.51c.21,9.03.42,18.06.55,27.07.07,4.95.13,9.91.19,14.87.31,25.29.62,51.44,2.18,77.06.02.27.04.53.06.77.01-.22.02-.45.03-.7.6-25.41.09-51.29-.41-76.33-.1-5.21-.21-10.41-.3-15.62-.16-8.54-.23-17.1-.31-25.66-.19-20.92-.39-42.55-1.76-63.66-.03-.42.08-.85.31-1.21,2.86-4.57,4.42-10.2,4.52-16.26.15-9.18-.13-18.54-.4-27.58l-.06-2.03c-.11-3.65-.08-7.37-.05-10.97.06-8.05.12-16.38-1.33-24.26-.73-3.98-2.48-7.31-5.19-9.88-.41-.39-.64-.93-.64-1.5.52-52.89-.88-100.74-4.27-146.3-.04-.59.17-1.16.58-1.58,5.27-5.36,7.94-12.73,7.71-21.31-.24-9.13-.92-18.41-1.57-27.4l-.16-2.16c-.27-3.71-.39-7.52-.52-11.21-.26-7.98-.53-16.23-2.28-23.94-1.33-5.81-4.68-10.06-9.96-12.62-.7-.34-1.14-1.05-1.15-1.83-.04-8.77-.12-27.02-5.54-38.87-.37-.81-.17-1.77.49-2.36.38-.34.87-.52,1.36-.52.36,0,.72.09,1.04.28,7.96,4.69,16.49,11.67,21.08,15.42,1.18.96,2.1,1.72,2.68,2.17,14.14,10.8,28.6,23.07,42.98,36.45,5.15,4.79,10.09,9.58,14.07,15.54,6.36,9.53,7.74,21.76,8.86,31.59.88,7.75,1.34,15.66,1.78,23.3l.21,3.58c3.84,64.94,6.09,131.06,8.27,195.01.41,12.08.82,24.17,1.24,36.25,1.35,38.58,2.64,77.16,3.9,115.73l.05,1.4c.3,9.31.62,18.95.82,28.43.16,7.83.23,15.78.27,23.19l.02,1.68c.04,3.12.07,6.35-.43,9.57-.89,5.73-6.66,8.4-10.87,10.35-.8.37-1.57.73-2.27,1.09-8.99,4.62-18.11,9.42-26.94,14.08-19.82,10.45-40.32,21.26-60.97,30.74-8.45,3.88-17.69,5.69-29.07,5.69Z"/>
      <path class="cls-10" d="M278.77,354.12c-.36-.3-.85-.46-1.32-.46-.12,0-.25.01-.37.03-.1.02-.2.04-.3.05-10.54.37-21.88.55-35.68.55-9.02,0-18.05-.07-27.06-.15h-1.35c-4.33-.05-8.68-.05-13.04-.05-5.65,0-11.36-.02-17.09-.09-.05,2.13-.43,4.28-1.02,6.38-1.28,4.54-3.65,8.43-6.36,12.13.29-.01.57-.04.86-.04,1.29,0,2.59.12,3.88.36,3.18.59,5.77,1.62,7.29,2.9.38.32.85.48,1.31.48.42,0,.84-.13,1.2-.39,2.07-1.51,4.8-2.31,7.9-2.31,2.08,0,4.27.37,6.33,1.05,2.2.74,4.96,1.77,6.77,3.27.38.31.84.47,1.3.47.49,0,.98-.18,1.37-.53,2.76-2.49,6.3-3.02,8.78-3.02,2.05,0,4.21.36,6.24,1.04,1.73.58,3.95,1.39,5.71,2.5.33.21.71.31,1.09.31.45,0,.89-.15,1.26-.44,1.71-1.34,3.52-2.55,6.87-2.55,2.29,0,5.04.54,8.39,1.67,1.91.64,4.33,1.53,6.14,2.79.35.25.76.36,1.16.36.61,0,1.2-.27,1.6-.77,2.23-2.82,6.06-5.11,9.32-5.58.58-.08,1.22-.13,1.89-.13,1.75,0,3.64.28,5.45.81.19.06.38.08.57.08.44,0,.88-.14,1.24-.42.52-.4.81-1.01.8-1.66l-.34-17.13c-.01-.6-.33-1.15-.79-1.53Z"/>
      <path class="cls-10" d="M275.16,192.78c-.35-.25-.77-.39-1.2-.39-.19,0-.38.03-.57.08-19.63,5.75-39.64,10.76-58.98,15.61-3.5.88-7,1.77-10.5,2.66-13.4,3.42-27.15,6.92-40.94,9.55,3.2,2.27,6.08,5.23,8.4,8.35,3.5-1.41,7.58-2.46,11.37-2.46s6.43.93,8.38,2.76c.39.37.89.55,1.39.55.53,0,1.06-.2,1.45-.61.71-.72,1.34-1.25,1.98-1.69,3.9-2.62,10.93-5.44,17.15-5.44,2.92,0,5.33.61,7.18,1.82.34.22.73.33,1.12.33.56,0,1.13-.24,1.53-.69.78-.88,1.59-1.6,2.48-2.2,3.9-2.62,10.92-5.43,17.14-5.43,2.87,0,5.25.59,7.09,1.76.34.21.72.32,1.1.32.5,0,.99-.18,1.37-.53.46-.42.95-.81,1.45-1.15,3.61-2.47,9.6-5.12,15.55-5.12,1.7,0,3.29.22,4.7.67.2.06.41.09.61.09.44,0,.87-.14,1.23-.41.52-.4.83-1.03.81-1.68-.14-5.06-.29-10.13-.46-15.19-.02-.63-.33-1.22-.84-1.58Z"/>
      <path class="cls-10" d="M188.92,298.83c.37.3.82.45,1.27.45s.87-.14,1.23-.42c4.34-3.29,11.37-5.59,17.11-5.59,3.22,0,5.9.72,7.74,2.09.48.36.81.81.99,1.32.21.64.73,1.13,1.38,1.32.19.05.37.08.56.08.47,0,.93-.16,1.31-.47.33-.27.66-.54,1.04-.79,4.23-2.82,12.89-5.03,19.71-5.03,2.05,0,3.83.2,5.3.58,1.23.33,2.86.96,3.6,2.13.39.61,1.05.95,1.73.95.36,0,.73-.1,1.06-.3,4.21-2.57,11.51-5.58,18.22-5.58,1.64,0,3.15.19,4.5.55.18.05.35.07.53.07.45,0,.89-.15,1.26-.43.5-.4.79-1,.78-1.65l-.23-11.99c-.01-.58-.27-1.12-.7-1.5-.37-.33-.85-.5-1.34-.5-.08,0-.17,0-.25.01-20.51,2.51-41.5,4.2-61.92,5.85-4.32.35-8.65.73-13.01,1.11-6.61.58-13.32,1.17-20.05,1.64.07,1.67-.03,3.32-.33,4.89-.64,3.32-1.87,6.46-3.48,9.43,1.4-.23,2.81-.39,4.2-.39,3.18,0,5.83.7,7.67,2.04.05.04.1.09.14.12Z"/>
      <path class="cls-10" d="M62.29,209.64c1.39,11.83,1.13,23.84.72,35.72-.73,21.43-1.01,42.67-.49,64.11.72,29.61.97,60.38-7.8,88.54.28,0,.57.03.85.03,8.35,0,13.12-3.16,14.2-9.39,1.25-7.27,1.33-14.87,1.4-22.22.03-2.75.06-5.48.14-8.17.69-21.09,1.23-43.12,1.63-67.34.26-15.77.48-31.55.7-47.33l.27-19.88.23-16.03c.01-.77.04-1.52.08-2.26.21-5.03.48-11.29-8.29-12.02-2.3-.19-4.67-.28-7.19-.29,2.01,5.18,2.89,11.04,3.54,16.53Z"/>
      <path class="cls-10" d="M174.42,156.09c2.29-.76,4.64-1.26,6.92-1.26,1.44,0,2.78.19,4,.58.2.06.41.09.61.09.78,0,1.52-.45,1.86-1.19.66-1.44,1.53-2.6,2.68-3.54,4.25-3.49,11.58-7.56,18.26-7.56,2.42,0,4.55.55,6.34,1.63.33.2.69.29,1.05.29.56,0,1.1-.23,1.5-.66.3-.32.61-.64.96-.93,4.24-3.49,11.57-7.56,18.26-7.56,2.06,0,3.91.4,5.52,1.18.29.14.59.21.89.21.72,0,1.42-.39,1.79-1.06.64-1.17,1.39-2.1,2.31-2.85,4.25-3.49,11.59-7.56,18.26-7.56,1.42,0,2.76.19,3.97.57.2.06.4.09.61.09.47,0,.92-.16,1.29-.46.53-.43.81-1.11.73-1.79-.45-4.27-1.07-9.9-1.82-15.54,0,0-.04-.32-.04-.33-.07-.59-.39-1.12-.89-1.45-.34-.23-.74-.35-1.14-.35-.18,0-.37.02-.54.07-25.87,7.17-52.11,15.28-69.48,20.65-3.87,1.2-7.38,2.28-10.43,3.22-4.01,1.23-8.21,2.37-12.28,3.47-5.21,1.41-10.51,2.86-15.71,4.55,6,4.43,10.95,10.68,14.51,17.51Z"/>
      <path class="cls-21" d="M184.7,379.19c-.64-.35-1.37-.74-2.17-1.02-.31-.11-.59-.18-.89-.28-.46,2.49-1.28,4.78-3,6.93-1.7,2.12-4.06,3.46-6.61,4.23,2.33.68,5.37,1.04,9.18,1.04h.25c.96,0,1.79-.68,1.99-1.62.51-2.44,1.23-4.68,2.13-6.65.45-.97.06-2.13-.88-2.64Z"/>
      <path class="cls-21" d="M180.86,422.42c.53,0,1.04-.21,1.42-.58.41-.4.63-.95.61-1.53-.06-1.85-.16-3.79-.26-5.79-.32-6.54-.69-13.94-.01-20.69.06-.62-.17-1.24-.62-1.67-.38-.37-.89-.57-1.41-.57-.1,0-.19,0-.29.02-1.16.17-2.4.25-3.67.25-1.91,0-3.77-.2-5.53-.55,4.75,5.06,4.25,13.89,4.32,20.41.03,3.24-.38,6.82-.5,10.34,1.94.12,3.87.24,5.81.35.04,0,.08,0,.12,0Z"/>
      <path class="cls-19" d="M337.02,328.87c1.34.11,2.62.32,3.88.59-1.21-45.83-3.01-91.64-4.9-137.44-.81.25-1.64.47-2.48.66-.96.21-1.63,1.07-1.6,2.05,1.08,39.53,2.1,81.52,3.23,132.16.02,1.05.83,1.9,1.88,1.99Z"/>
      <path class="cls-19" d="M216.13,175.34c-1.59-6.86-1.7-14.81-1.64-20.19.01-1.18.08-2.29.19-3.31.08-.72-.22-1.43-.8-1.87-1.84-1.38-4.03-2.08-6.52-2.08-.75,0-1.53.08-2.31.22-2.05,5.78-2.55,12.46-2.53,17.89,0,3.01.39,9.09,1.79,14.7,3.46-.98,6.91-1.98,10.37-2.94,1.05-.29,1.69-1.36,1.44-2.42Z"/>
      <path class="cls-19" d="M326.92,82.23c.09,1.04.96,1.85,2,1.86.97.01,1.9.12,2.84.21-.11-2.06-.19-4.13-.32-6.19-.5-8.04-.93-16.34-2.66-24.23-1-4.56-3.48-7.69-6.81-9.85,2.72,9.59,3.56,20.29,4.35,30.68.19,2.54.38,5.05.6,7.51Z"/>
      <path class="cls-19" d="M232.35,382.39c-3.16-1.92-6.16-3.02-8.96-3.38.77,1.91.76,4.47.51,5.76-.4,2.13-2.5,3.62-4.41,4.89,2.35.79,4.76,1.23,7.09,1.28l.56.02c.64.03,1.59.07,2.55.07h.42c.97-.01,1.8-.71,1.98-1.66.32-1.7.69-3.2,1.15-4.6.29-.9-.07-1.88-.88-2.37Z"/>
      <path class="cls-19" d="M262.29,324.62c4.93.03,9.8.08,14.55.15h.03c.54,0,1.06-.22,1.45-.6.39-.39.6-.93.59-1.48-.17-8.16-.33-16.33-.49-24.5-.01-.69-.37-1.32-.95-1.69-.04-.02-.15-.08-.19-.1-1.56-1.15-3.97-1.74-7.16-1.74-2,0-4.25.24-6.51.67-1.53,7.05-1.56,14.81-1.63,20.65-.03,2.36.02,5.41.31,8.64Z"/>
      <path class="cls-19" d="M345.1,451.94c.5-5.96.58-11.95.42-17.93-2.05,1.25-4.25,2.24-6.64,2.91-.89.25-1.5,1.07-1.49,1.99l.06,3.21c.27,13.3.48,23.8-10.39,32.79-11.05,9.15-25.56,10.32-36.97,10.32-3.59,0-7.09-.12-10.03-.25-8.35-.35-16.7-.68-25.05-1.01-33.16-1.32-67.44-2.68-101.15-5.09-6.31-.45-14.19-1.08-22.58-1.76-16.69-1.34-35.62-2.86-48.28-3.43-.76-.04-1.51-.05-2.23-.05-9.08,0-15.42,2.78-19.34,8.37,6.76-.64,13.52-.73,19.88-.61,14.39.26,28.78,1.97,43.13,3.01,39.03,2.81,78.1,5.19,117.17,7.15,14.22.71,28.44,1.46,42.68,1.72,17.34.32,38.46.34,51.21-13.38,7.05-7.59,8.77-18.04,9.6-27.96Z"/>
      <path class="cls-19" d="M229.49,424.49s.22,0,.24,0c.53,0,1.04-.21,1.43-.58.4-.39.62-.93.61-1.49-.05-2.45-.18-5.1-.31-7.89-.3-6.09-.63-13-.12-19.38.05-.62-.18-1.22-.63-1.64-.38-.36-.88-.56-1.4-.56-.09,0-.18,0-.27.02-1.12.15-2.34.22-3.65.22-2.57,0-5.06-.3-6.83-.68,5.07,4.93,3.47,13.78,3.02,20.18-.27,3.85-.63,7.67-.62,11.53,1.98.06,3.97.13,5.95.18.85.02,1.72.06,2.58.09Z"/>
      <path class="cls-16" d="M261.33,129.37c2.08,5.26,2.66,11.54,3.03,16.46.51,6.71-.33,13.12-1.92,19.38,2.82-.7,5.56-1.38,8.16-2.01.23-.06.45-.08.66-.08.26,0,.51.04.76.13.22.08.45.12.68.12.43,0,.86-.14,1.21-.4.55-.4.85-1.05.82-1.73l-.09-2.08c-.2-4.65-.4-9.3-.63-13.95-.11-2.2-.25-4.39-.42-6.59-.09-1.22-.2-2.45-.3-3.67-.04-.48-.25-.92-.59-1.26-2.84-2.85-6.57-4.35-10.8-4.35-.19,0-.38.02-.58.03Z"/>
      <path class="cls-6" d="M189.89,252.77c.33-.48.44-1.08.3-1.64-1.32-5.35-1.34-10.97-.06-15.4.25-.88-.11-1.82-.89-2.3-.06-.04-.12-.07-.13-.07,0,0,0,0,0,.01-1.72-1.18-3.85-1.86-6.31-2.07-3.59,4.17-5.88,11.62-6.39,15.11-.39,2.65-.44,5.74.03,8.72,4-.5,8-1.02,12-1.49.58-.07,1.1-.38,1.43-.87Z"/>
      <path class="cls-6" d="M231.45,319.73c.09,1.67.39,3.35.84,4.97,4.66-.05,9.33-.08,13.99-.1.64,0,1.24-.31,1.62-.82.38-.51.5-1.17.32-1.79-1.34-4.61-1.98-11.08-1.59-16.09.17-2.23.62-4.08,1.37-5.66.46-.96.09-2.12-.83-2.64,0,0-.29-.16-.3-.17-1.56-1.15-3.97-1.74-7.15-1.74-.39,0-.78.01-1.19.03-1.36,1.71-2.49,3.64-3.42,5.36-3.01,5.59-4.02,12.37-3.67,18.65Z"/>
      <path class="cls-6" d="M206.58,392.27c-.38-.38-.9-.59-1.44-.59-.1,0-.2,0-.29.02-1.19.18-2.5.26-3.91.26-2.36,0-4.67-.25-6.41-.59,3.14,3.21,4.2,7.1,4.63,12.13.57,6.64.29,13.39-1.34,19.8,2.4.12,4.8.24,7.2.35h.09c.54,0,1.06-.21,1.44-.59.4-.4.62-.96.6-1.53-.06-1.51-.14-3.08-.21-4.68-.36-7.28-.76-15.52.24-22.85.08-.63-.13-1.27-.59-1.73Z"/>
      <path class="cls-6" d="M189.77,384.6c.41,1.2,1.3,2.2,2.58,2.78,3.17,1.46,6.55,2.26,9.78,2.33l.56.02c.63.03,1.55.06,2.5.06.43,0,.86,0,1.27-.03.88-.04,1.63-.64,1.87-1.48.4-1.44.88-2.78,1.43-4.01.37-.83.15-1.8-.55-2.39-.55-.46-1.22-.88-1.95-1.28-4.84,3.6-11.18,4.82-17.48,4Z"/>
      <path class="cls-6" d="M280.64,395.46c-.02-.58-.3-1.13-.76-1.5-.36-.3-.82-.45-1.28-.45-.12,0-.23,0-.34.03-1.46.25-3.17.38-4.96.38-1.06,0-2-.04-2.72-.11-.32-.03-.62-.08-.93-.12.18.19.36.39.52.61,1.72,2.34,2.04,5.84,2.33,8.63.63,6.09.57,12.3-.53,18.28,4.87-2.26,7.68-5.33,8.21-9.09.79-5.53.69-11.28.46-16.66Z"/>
      <path class="cls-6" d="M263.05,386.84c.02.06.04.13.07.19,1.99,4.79,11.9,5.04,13.86,5.04.51,0,1-.01,1.46-.04,1.12-.06,1.99-1.02,1.93-2.14-.09-1.72-.22-5.84-.29-7.98-1.43,1.03-2.97,1.93-4.59,2.71-3.03,1.46-8.34,3.04-12.44,2.22Z"/>
      <path class="cls-5" d="M310.61,191.74c1.84,47.25,3.63,94.51,5.12,141.77,2.07-1.21,4.46-2.26,7.04-3.04.87-.27,1.46-1.08,1.44-2-1.14-51.31-2.18-93.78-3.26-133.68-.03-1.1-.93-1.98-2.04-1.98-3.35,0-6.07-.41-8.3-1.07Z"/>
      <path class="cls-5" d="M297.61,39.9c4.56,7.15,6.48,16.19,7.22,24.55.69,7.82,1.01,15.67,1.41,23.51.06,1.19.11,2.38.17,3.56.49-.41.98-.82,1.52-1.21,2-1.45,4.33-2.69,6.94-3.7.86-.33,1.39-1.2,1.29-2.11-1.04-9.98-2.01-18.23-3.05-25.99-.14-1.01-.24-2.14-.36-3.33-.44-4.52-.98-10.15-3.39-13.96-3.25-5.15-9.21-7.84-17.66-8.07,2.17,1.83,4.16,4.02,5.9,6.75Z"/>
      <path class="cls-5" d="M200.1,266.33c-13.46,1.26-26.85,3.14-40.32,4.31-5.19.45-10.39.8-15.58,1.29-3.85.36-8.12.62-11.94-.41,0,.18,0,.35,0,.5.34,3.85,5.64,6.55,12.91,6.55h2.93c5.61,0,11.1-.02,16.6-.27,38.84-1.76,76.29-4.83,111.33-9.14,1.04-.13,1.81-1.02,1.79-2.06l-.2-9.39c-12.09,1.61-24.11,3.67-36.25,4.95-13.74,1.45-27.52,2.39-41.27,3.68Z"/>
      <path class="cls-5" d="M160.98,340.74c-5.71-.26-11.37-.04-17.08-.1-3.1-.03-6.99-.15-10.39-1.17-.08.76.04,1.42.24,1.94,1.17,3.13,5.74,4.42,8.36,4.92,5.63,1.06,11.43,1.31,17.04,1.56l2.13.1c22.87,1.07,45.76,1.61,68.04,1.61,16.01,0,32.03-.28,47.66-.82.03,0,.33.02.37.02.52,0,1.03-.2,1.41-.57.41-.39.64-.94.62-1.51l-.18-9.01c-23.75,1.69-47.46,2.83-71.27,3.47-15.71.42-31.25.28-46.96-.44Z"/>
      <path class="cls-5" d="M134.56,215c1.28,2.73,5.04,3.31,7.96,3.31.51,0,1.01-.02,1.47-.05,5.79-.39,11.53-1.61,17.09-2.79l1.88-.4c38.22-8.02,75.65-17.45,111.26-28.01.89-.26,1.49-1.1,1.46-2.03l-.04-1.08c-.08-2.46-.18-4.92-.27-7.38-10.2,3.92-21.26,6.23-31.76,9.14-13.66,3.79-27.33,7.56-41.02,11.23-11.78,3.16-23.56,6.31-35.37,9.36-10.57,2.73-21.95,6.69-33.03,7,.02.59.14,1.16.39,1.69Z"/>
      <path class="cls-5" d="M69.04,460.35c10.34,3.11,21.06,3.54,31.43,3.95,2.06.08,4.13.16,6.19.26,10.32.51,20.81,1.33,30.96,2.13,5.32.42,10.63.83,15.95,1.21,34.19,2.42,70.86,4.77,107.32,5.56,3.58.08,7.71.42,12.07.79,5.87.49,11.95,1,18,1,10.62,0,18.21-1.62,23.9-5.08,4.94-3.01,11.71-7.13,11.73-15.81.01-4.36-.06-8.71-.12-13.07l-.03-1.75c-.02-.99-.74-1.82-1.71-1.98l-.49-.06c-3.76-.65-6.93-1.5-9.57-2.52-.17,2.59-.38,5.19-.65,7.77-.79,7.74-2.77,15.33-10.17,19.13-8.29,4.26-18.66,3.21-27.66,2.98-14.04-.36-28.07-.96-42.1-1.59-34.79-1.56-69.57-3.46-104.31-5.92-13.58-.97-27.18-1.99-40.72-3.44-9.08-.97-22.03-1.67-30.59-6.95.89,5.88,3.3,11.18,10.58,13.37Z"/>
      <path class="cls-5" d="M359.17,190.27c-2.45,5.12-2.01,10.44-1.94,15.98.1,8.25.3,16.51.54,24.76.46,15.92,1.15,31.82,1.87,47.73.69,15.06,1.42,30.12,2.05,45.18.27,6.51,2.24,12.37,4.37,18.48,2.77,7.94,2.74,15.95,3.08,24.27.49,12.17.98,24.34,1.46,36.51.25,6.35.98,12.76-.4,19.02-1.51,6.78-4.4,12.94-5.35,19.9-.97,7.12-.66,14.39-.66,21.55,0,8.03-.06,16.06-.19,24.09-.42,25.95-1.57,51.91-3.94,77.76-.82,8.94-1.82,17.86-3.06,26.75-.07-3.45-.13-6.89-.19-10.34,0,8.75-.03,17.5-.24,26.2,0,.24-.01.48-.03.7-.02-.24-.04-.5-.06-.77-1.55-25.62-1.87-51.77-2.18-77.06-.06-4.96-.12-9.92-.19-14.87-.13-9.01-.34-18.03-.55-27.07l-.1-4.31c-3.47,9.4-7.98,18.9-16.99,24.06-3.78,2.16-7.68,3.68-9.3,8.09-2.06,5.61-1.78,12.01-1.79,17.91-.01,8.59.25,17.19.51,25.78.53,17.22,1.36,34.44,1.84,51.66.17,6.17.3,12.71-2.93,18.2-5.16,8.78-19.59,6.51-27.87,5.67-42.39-4.28-84.82-8.47-127.03-14.36-22.64-3.16-45.21-6.86-67.63-11.34-10.11-2.03-20.24-4.12-30.23-6.66-3.97-1.01-7.85-2.39-11.25-4.37.04.12.07.24.11.35,3.28,8.77,11.77,10.5,19.27,12.02,1.18.24,2.34.48,3.48.74,9.08,2.1,16.04,3.64,22.57,5,15.77,3.29,30.18,6.03,44.05,8.35,28.34,4.76,58.63,8.86,92.6,12.53,14.89,1.61,31.03,3.25,49.37,5.01,6.84.66,13.52,1.25,20.08,1.25,11.38,0,20.62-1.81,29.07-5.69,20.66-9.48,41.15-20.29,60.97-30.74,8.82-4.65,17.94-9.46,26.94-14.08.7-.36,1.47-.72,2.27-1.09,4.21-1.95,9.98-4.62,10.87-10.35.5-3.22.46-6.45.43-9.57l-.02-1.68c-.04-7.42-.11-15.36-.27-23.19-.2-9.48-.52-19.12-.82-28.43l-.05-1.4c-1.26-38.58-2.55-77.16-3.9-115.73-.42-12.08-.83-24.17-1.24-36.25-1.63-47.94-3.31-97.1-5.66-146.07-4.21-30.97-9.92-62.41-21.5-91.17-2.35-5.85-5.1-11.59-8.61-16.85-4.48-6.71-11-11.29-17.19-16.33-4.62-3.76-9.29-7.48-14.02-11.11-2.36-1.8-5.42-4.93-8.68-4.44-5.34.81-2.28,18.78-2.07,22.09.91,14.03,2.16,28.02,2.97,42.05.45,7.69.75,15.39.89,23.1.08,3.9.07,7.8.03,11.69-.04,4.02-1.9,7.38-3.58,10.9Z"/>
      <path class="cls-3" d="M257.04,383.03c-1.93-1.26-5-1.87-7.58-2.17.46,3.67-2.7,8.35-5.8,10.56,2.09.62,4.2.99,6.25,1.03l.57.02c.64.03,1.57.07,2.51.07.59,0,1.19-.01,1.73-.06.91-.07,1.67-.73,1.85-1.63.37-1.85.93-4.36,1.3-5.48.28-.88-.05-1.83-.82-2.33Z"/>
      <path class="cls-3" d="M249.14,246.38c.33-.55.39-1.23.14-1.84-2.71-6.5-3.26-14.52-1.4-20.43.32-1.02-.2-2.12-1.2-2.51-1.65-.65-3.55-.97-5.66-.97-.24,0-.49.03-.73.04-.85,1.64-1.53,3.42-2.19,5.23-2.1,5.84-3.48,12.2-2.47,18.39.24,1.46.69,2.82,1.3,4.07,3.68-.36,7.22-.69,10.66-1.01.65-.06,1.23-.42,1.56-.98Z"/>
      <path class="cls-3" d="M217.33,324.14c.38-.5.5-1.15.34-1.75-1.23-4.61-1.79-10.67-1.43-15.44.11-1.42.35-2.76.73-3.98.16-.53.1-1.11-.17-1.59-.98-1.75-3.16-3.83-8.02-3.83-.38,0-.76.01-1.15.04-1.06.94-1.95,2.07-2.5,3.57-1.35,3.69-.59,9.08-.45,12.94.12,3.05.3,7.21,1.19,11.08,3.29-.08,6.58-.18,9.87-.24.63-.01,1.21-.31,1.59-.81Z"/>
      <path class="cls-3" d="M174.47,189.34c4.1-1.21,8.2-2.45,12.31-3.64,1.05-.31,1.67-1.39,1.41-2.45-1.3-5.22-1.9-11.94-1.82-20.54,0-.75-.39-1.43-1.04-1.8-2.09-1.17-4.61-1.79-7.29-1.79-1.24,0-2.5.14-3.74.39,2.5,5.32,3.11,11.88,2.73,17.31-.3,4.28-1.45,8.39-2.56,12.52Z"/>
      <path class="cls-3" d="M248.67,425.25c1.97,0,3.77-.05,5.51-.14,1.1-.06,1.96-.99,1.92-2.1-.06-2.04-.17-4.2-.28-6.45-.31-6.32-.67-13.49-.07-20.06.06-.64-.19-1.26-.66-1.69-.38-.35-.87-.53-1.37-.53-.12,0-.25.01-.37.04-1.36.25-2.91.38-4.62.38-2.16,0-4.26-.21-5.93-.51,7.3,6.72,4.8,21.22,3.97,31.04.63,0,1.27.02,1.9.02Z"/>
      <path class="cls-17" d="M186.55,309.9c-.04-1.83.11-3.38.46-4.72.22-.89-.17-1.82-.96-2.27-1.42-.82-3.31-1.23-5.61-1.23-1.87,0-3.93.29-5.96.75,2.08,4.81,2.26,10.92,2.31,15.63.03,2.75-.82,5.42-1.67,8.05,3.71-.13,7.42-.28,11.14-.4.63-.02,1.22-.33,1.59-.85.37-.52.48-1.17.29-1.78-1.24-4.1-1.5-8.97-1.58-13.17Z"/>
      <path class="cls-17" d="M264.43,245.91c3.73-.3,7.41-.59,10.99-.86,1.08-.08,1.91-.99,1.89-2.08-.16-7.47-.35-14.93-.54-22.4-.01-.51-.22-.99-.57-1.36-2.24-2.33-4.67-3.41-7.65-3.41-1.12,0-2.33.15-3.82.45-.49.1-1.01.22-1.55.34,2.2,5.47,2.1,11.96,2.03,18.07-.04,3.78-.27,7.52-.78,11.23Z"/>
      <path class="cls-17" d="M219.33,230.53c.22-.92-.22-1.86-1.06-2.29-1.88-.96-4.13-1.44-6.7-1.44-.96,0-1.93.09-2.89.21-1.53,4.87-1.55,10.72-1.27,14.73.2,2.83.78,6.34,1.94,9.53,3.1-.35,6.2-.71,9.31-1.04.62-.07,1.17-.41,1.5-.92.33-.52.42-1.16.22-1.75-1.87-5.61-2.27-11.97-1.06-17.02Z"/>
      <path class="cls-17" d="M243.26,144.93v-.24c.02-.71-.34-1.38-.95-1.76-.02-.02-.22-.12-.25-.14-1.96-1.49-4.45-2.33-7.22-2.54-2.8,8.42-2.36,18.18.22,26.34.46,1.46,1.12,3.27,1.95,5.14,2.36-.62,4.69-1.24,7-1.84.53-.14.99-.49,1.26-.96.27-.48.34-1.05.19-1.58-1.58-5.44-2.3-12.73-2.19-22.42Z"/>
      <path class="cls-9" d="M347.56,395.94c-.08-4.86-.17-9.71-.27-14.57-.16-8.15-.33-16.58-.4-24.88-.08-10.66-5.48-17.56-13.75-17.56-1.11,0-2.27.14-3.47.39.42.73.8,1.51,1.12,2.34,2.17,5.5,2.21,11.84,2.42,17.68.46,12.72,1.36,25.37.99,38.11-.25,8.63-.21,19.73-2.55,29.63,3.68-.18,7.02-1.16,9.66-2.95,7.56-5.11,6.95-15.31,6.45-23.51-.1-1.65-.2-3.23-.22-4.69Z"/>
      <path class="cls-9" d="M332.38,95.4c-2.04-.48-4.01-.72-5.88-.72s-3.51.26-5.07.71c.66.69,1.3,1.47,1.89,2.36,3.68,5.52,4.03,13.51,4.47,19.87.99,14.1,1.79,28.24,2.33,42.36.27,6.96.46,14.62-.3,22.09,3.19-.43,6.3-1.29,8.76-3.11,7.14-5.28,6.05-15.6,5.17-23.9-.18-1.67-.35-3.26-.43-4.7-.28-4.8-.58-9.6-.89-14.4-.52-8.18-1.05-16.65-1.47-25.02-.27-5.46-.69-13.72-8.58-15.56Z"/>
      <path class="cls-9" d="M161.04,114.71c19.97-4.52,40.35-5.87,60.77-5.02,5.41.22,10.84.55,16.26.92,10.44-3.1,20.78-6.05,29.84-8.4,1.03-.27,1.68-1.28,1.49-2.33-.8-4.47-2.17-7.34-4.31-9.04-3.95-3.11-9.19-4.69-15.58-4.69-9.94,0-21.04,3.7-29.97,6.67-2.19.73-4.24,1.41-6.1,1.98-14.31,4.37-28.83,9.41-43.18,14.96-5.68,2.2-11.3,4.44-16.87,6.7,2.56-.59,5.1-1.18,7.64-1.75Z"/>
      <path class="cls-8" d="M89.12,518.45c12.24,7.77,26.59,9.6,40.76,11.43,16.39,2.12,33.16,2.57,49.66,3.31,12.66.57,25.27,1.74,37.93,2.23,15.53.6,30.95-1.59,46.32-3.51,5.01-.62,5.13-7.39,0-7.88-26.9-2.56-53.43-7.32-80.47-8.97-15.27-.94-30.58-1.59-45.86-2.48-15.65-.91-32.19-4.87-47.5-.59-3.03.84-3.4,4.84-.84,6.46Z"/>
      <path class="cls-8" d="M277.62,531.51c.52.05,1.19.41,1.72.54,1.15.29,2.34.32,3.5.2,2.82-.28,6.19-1.48,6.19-4.91,0-3.19-3.36-4.94-6.19-4.62-1.23.14-2.36.29-3.5.76-.87.36-1.74.96-2.66,1.09-1.53.21-2.6,1.99-2.6,3.41,0,2.07,1.62,3.34,3.54,3.54Z"/>
      <path class="cls-8" d="M129.67,440.16c13.24,1.07,26.24,2.45,39.55,1.65,3.8-.23,4.65-5.51.9-6.66-13.38-4.12-26.77-1.69-40.46-1.96-4.55-.09-4.42,6.62,0,6.98Z"/>
      <path class="cls-8" d="M118.93,431.12c-1.34.17-2.39.32-3.53,1.08-2.5,1.67-2.72,4.59-.88,6.84.77.95,1.91,1.58,3.1,1.83.98.21,2,.23,2.97-.03,1.41-.39,2.22-1.27,3.05-2.4.89-1.23.86-3.45,0-4.68-1.02-1.45-2.75-2.88-4.7-2.63Z"/>
      <path class="cls-15" d="M49.14,352.32c1.25-21.39,1.91-42.81,2.91-64.22,1.05-22.47,3.97-45.67,2.74-68.13-.14-2.5-4-3.29-4.55-.62-4.36,20.96-4.2,43.4-5.12,64.74-.97,22.7-1.15,45.53-.11,68.23.12,2.67,3.98,2.66,4.13,0Z"/>
      <path class="cls-15" d="M320.99,167.2c-.94-15.34-1.04-30.69-1.85-46.01-.17-3.24-4.49-3.05-4.9,0-2.04,15.19-.67,31.61,2.36,46.6.5,2.47,4.54,1.91,4.39-.59Z"/>
      <path class="cls-15" d="M321.88,417.87c.31,2.18,3.81,1.61,3.78-.51-.25-16.12-.03-32.15.67-48.26.14-3.16-4.39-2.96-4.78,0-2.1,16.23-1.93,32.57.33,48.77Z"/>
      <path class="cls-15" d="M253.36,54.69c-57.7,11.5-113.82,35.04-164.48,64.66-2.15,1.26-.22,4.56,1.96,3.34,51.8-29.02,106.32-49.02,163.49-64.48,2.29-.62,1.32-3.98-.97-3.52Z"/>
      <path class="cls-15" d="M400.89,127.05c3.99,6.92,3.31,14.65,6.3,21.74.83,1.97,3.4,2.66,4.67.61,4.8-7.75,1.37-17.21-2.12-24.97-2.98-6.62-10.07-17.21-18.21-16.9-1.73.07-3.34,1.77-2.72,3.57,2.13,6.16,8.76,10.19,12.08,15.95Z"/>
      <path class="cls-15" d="M410.32,158.3c-1.77,0-3.97,1.32-4.24,3.23-.22,1.57-.29,3.05.54,4.48.79,1.35,2.25,2.3,3.83,2.3,3.54,0,4.75-3.94,4.11-6.78-.43-1.9-2.35-3.23-4.24-3.23Z"/>
      <path class="cls-15" d="M70.61,569.43c-.76-15.53-1.16-31.02-1.66-46.56-.08-2.54-3.67-2.47-3.89,0-1.39,15.54-.62,31.66,1.71,47.08.33,2.2,3.96,1.66,3.85-.52Z"/>
      <path class="cls-15" d="M70.32,585.53c1.4-.38,2.01-1.75,1.75-3.09-.21-1.09-.44-1.96-.94-2.94-.46-.91-1.64-1.31-2.59-1.05-1.04.29-1.61,1.19-1.68,2.21-.08,1.1.14,2.04.37,3.12.29,1.34,1.82,2.1,3.09,1.75Z"/>
      <path class="cls-15" d="M436.74,600.85c.14-21.15-.46-42.29-1.79-63.41-.12-1.96-3.18-1.97-3.06,0,1.33,21.11,1.93,42.25,1.79,63.41-.01,1.97,3.04,1.97,3.06,0Z"/>
      <path class="cls-15" d="M429.04,602.53c-.06-14.22-.45-28.43-1.17-42.62-.1-1.96-3.16-1.97-3.06,0,.72,14.2,1.11,28.41,1.17,42.62,0,1.97,3.07,1.97,3.06,0Z"/>
      <path class="cls-15" d="M417.44,603.66c-.12,1.97,2.94,1.96,3.06,0,.61-9.93.52-19.83-.25-29.75-.15-1.95-3.21-1.97-3.06,0,.77,9.92.86,19.82.25,29.75Z"/>
      <path class="cls-15" d="M455.61,548.25c-.19-10.57-.59-21.14-.93-31.71-2.68-82.03-5.45-164.07-8.75-246.08-1.35-33.47-2.71-66.96-4.68-100.4-1.62-27.35-2.47-55.88-23.04-76.5-16.44-16.48-34.81-31.32-53.29-45.43-11-8.4-35.69-29.74-51.38-20.93-5.41-3.88-12.27-5.99-18.91-6.57-18.11-1.6-36.64,5.02-53.8,10.04-19.62,5.74-38.9,12.62-57.99,19.88-17.94,6.83-35.67,14.19-53.37,21.62-15.62,6.56-31.73,12.51-45.93,21.9-12.21,8.08-21.41,19.18-24.96,33.5-4.07,16.39-4.58,34.55-5.73,51.53-11.37.8-17.68,6.02-21.23,11.4-3.6,5.46-4.35,11.07-4.61,12.41-2.02,10.09-1.7,21.13-2.33,31.07-.97,15.18-1.6,30.37-2.08,45.57-.9,28.59-1.04,57.2-1.39,85.8-.12,10.04-2.65,23.4,1.97,32.83,4.22,8.62,11.87,10.35,20.65,11.66.24.04.5.07.74.1-.2,10.11-.24,20.21.47,30.3.66,9.38,1.46,21.23,9.65,27.27-2.42,2.15-4.54,4.56-6.21,6.99-6.18,8.98-5.08,20.11-5.07,30.5.03,30.58-.86,61.84,3.57,92.17,1.52,10.36,7.35,19.83,17.45,23.57,14.48,5.36,30.56,7.68,45.66,10.78,29.51,6.05,59.28,10.68,89.14,14.63,31,4.1,62.12,7.22,93.24,10.22,14.88,1.44,29.24,2.4,43.8-1.7,14.98-4.22,28.99-13.07,42.73-20.13,14.25-7.32,28.5-14.63,42.75-21.95,10.44-5.36,28.45-10.73,32.35-23.42,3.91-12.73,1.76-27.78,1.52-40.91ZM336.99,83.16c-2.56-.71-5.28-1.06-8.04-1.11-1.2-13.6-1.62-28.78-5.95-41.65,5.36-.05,6.85,2.75,8.58,7.05,3.79,9.41,5.12,25.21,5.41,35.71ZM344.33,190.29c2.94,46.52,3.65,93.23,4.44,139.84-3.43-1.9-7.43-2.96-11.59-3.3-.98-44.06-2.03-88.12-3.23-132.17,3.84-.84,7.33-2.34,10.38-4.38ZM295.25,504.71c-26.06.28-52.62-2.54-78.67-3.9-52.12-2.74-103.76-8.35-155.6-13.81,3.02-7.43,9.31-11.83,21.92-11.26,18.96.86,51.88,3.83,70.81,5.18,42.09,3,84.13,4.35,126.26,6.1,16.77.7,34.83.68,48.39-10.54,12.53-10.37,11.3-22.51,11.07-37.6,4.44-1.25,8.35-3.45,11.58-6.41-.13,6.92-.16,13.86-.12,20.8.07,12.85-5.44,27.08-18.11,40.06-10.03,10.28-24.03,11.24-37.52,11.39ZM314.65,369.4c.29-4.62.63-9.23,1.08-13.83.63-6.63,5.26-11,11.34-13.34,11.56-4.45,17.7,3.6,17.78,14.28.1,13.16.46,26.3.67,39.46.14,8.47,2.67,21.07-5.33,26.47-3.63,2.45-8.25,3.03-12.74,2.49-1.26-.15-11.18.03-12.15-9.09-1.82-17.19-.54-41.46-.64-46.44ZM337.38,177.34c-4.24,3.13-10.95,3.08-16.4,3.23-6.46.17-8.1-3.51-8.66-7.81-.98-7.44-1.78-21.55-1.87-22.76-.56-8.14-.87-33.46-.64-37.93.34-6.48,4.05-10.5,9.53-13.62,3.78-2.16,8.53-2,12.58-1.05,6.42,1.5,6.74,8.32,7.01,13.72.66,13.14,1.59,26.26,2.36,39.39.48,8.19,3.64,21.25-3.91,26.84ZM71.86,139.48c1.79-16.82,10.3-27.01,24.34-35.66,11.59-7.14,24.76-11.88,37.26-17.15,15.34-6.45,30.72-12.78,46.21-18.86,29.74-11.66,60.02-21.95,91.04-29.66,10.07-2.5,29.93-6.93,36.93,4.15,2.74,4.34,2.81,11.67,3.46,16.48,1.15,8.62,2.14,17.27,3.04,25.93-2.72,1.05-5.24,2.38-7.4,3.96-11.56,8.38-12.02,20.83-12.4,33.61-.19,2.71,1.5,26,3.96,54.75.54,2.63-.76,17.79,20.61,17.81,1.21,44.55,2.27,89.11,3.26,133.67-3.25,1-6.27,2.37-8.8,4.04-4.49,2.97-7.4,6.66-9.32,10.78-2.46,5.28-3.84,51.59-2.07,74.06.4,5.1.97,8.98,1.72,10.86,2.96,7.44,13.07,10.03,20.18,11.26.17.03.34.04.52.07.08,4.92.16,9.85.15,14.78-.02,7.14-5.08,10.62-10.76,14.08-13.66,8.32-37.68,3.32-52.86,2.99-35.78-.77-71.52-3.03-107.22-5.55-15.64-1.11-31.29-2.57-46.95-3.34-12.5-.62-25.04-.49-37.13-4.13-10.38-3.13-9.34-13.62-9.87-22.87-.47-8.25-.36-16.52-.19-24.78,2.89-.23,5.71-.81,8.39-1.79,6.32,16.75,28.88,15.08,44.92,15.81,15.81.72,79.66,5.38,94.54,6.02,15.23.64,30.56,1.31,45.8,1.3,11.46,0,21.06-3.03,29.42-10.8,2.02-1.88,4.86-5.93,5.14-14.38.51-15.54-1.03-45.77-1.13-51.48-.91-48.53-2.14-97.06-3.47-145.58-.57-20.91-2.79-74.3-5.72-100.83-1.71-15.47-5.51-28.56-23.89-29.36-11.86-.51-23.33,3.1-34.64,6.25-13.4,3.74-26.58,8.25-39.65,13.02-23.54,8.59-46.83,18.22-69.74,28.38-14.17,6.28-29.09,15.54-32.04,31.77-1.38,7.58-1.97,15.29-2.38,23.01-1.26-.39-2.61-.73-4.12-1.01-.82-.15-1.64-.26-2.46-.38-.23-.09-.46-.18-.69-.26,1.09-13.68,2.58-27.31,4.03-40.96ZM83.94,187.77c.16-3.15.32-6.3.53-9.45.62-9.31.29-20.22,6.44-27.76,7.84-9.62,20.83-14.51,31.92-19.2,15.98-6.76,32-13.43,48.18-19.7,14.16-5.48,28.51-10.47,43.04-14.91,13.5-4.13,37.14-14.28,49.79-4.31,2,1.58,3,4.61,3.57,7.79-26.76,6.94-65.26,19.29-83,24.81-13.79,4.29-27.93,7.65-41.04,13.76-12.76,5.94-30.61,10.75-38.37,23.62-8.44,13.98-6.13,35.47-6.44,50.9-.29,14.31-.47,28.62-.62,42.94-.56,52.34-.79,104.68-.51,157.03,0,.54,0,1.09,0,1.63-2.14-.16-4.27-.35-6.41-.64-8.01-1.11-13.12-2.88-15.1-10.27,4.79-4.82,6.61-11.64,7.37-19.01,3.05-29.69,2.09-60.37,2.62-90.2.55-30.4.87-60.8,1.34-91.2.11-6.99-.6-12.14-3.3-15.84ZM186.21,183.74c-7.42,2.16-14.82,4.35-22.22,6.57-.05-4.61-.44-13.51-.64-18.07-.36-8,12.99-14.04,20.99-9.55-.06,6.66.23,14.44,1.87,21.05ZM174.82,196.53c32.37-9.59,64.96-18.41,97.71-26.6.2-.05.37-.13.55-.2.2,5.13.38,10.25.56,15.38-36.53,10.83-73.82,20.14-111.1,27.97-6.15,1.29-12.41,2.72-18.69,3.15-3.93.27-11.1-.5-5.7-6.98,2.75-3.31,28.4-10.26,36.68-12.72ZM214.14,175.8c-7.62,2.11-15.23,4.27-22.83,6.47-.34-6.43-.34-9.89-.59-13.77-.71-11.04,4.13-12.83,6.54-14.67,4.78-3.64,11.1-5.43,15.39-2.22-.14,1.17-.2,2.35-.21,3.52-.07,6.49.17,14.11,1.69,20.67ZM243.5,167.92c-8.03,2.09-16.04,4.24-24.03,6.43-.74-9.41-.53-11.21-.78-16.73-.12-2.71.27-7.6,2.58-10.18,4.8-5.34,14.28-7.05,19.56-3.03.14.1.27.16.4.25,0,.13,0,.26-.01.39-.08,7.23.24,15.86,2.28,22.87ZM270.13,161.22c-7.38,1.79-14.74,3.64-22.09,5.53-1.97-21.01-1.06-27.1,1.77-30.19,4.98-5.42,15.25-7.67,21.45-1.44.11,1.21.21,2.43.3,3.65.17,2.18.31,4.35.42,6.53.26,5.34.49,10.68.72,16.02-.75-.26-1.61-.34-2.57-.1ZM246.08,131.86c-1.22,1-2.11,2.17-2.8,3.45-8.21-4.01-19.62,1.42-25.97,6.63-.43.35-.81.74-1.17,1.13-8.26-4.98-20.34.68-26.95,6.1-1.48,1.21-2.51,2.67-3.24,4.27-8.01-2.52-18.27,2.51-24.17,7.35-3.99,3.27-4.81,8.36-4.86,13.18-.06,5.66.12,12.17,1.17,18.09-.49.15-.98.29-1.47.44-10.66,3.23-29.96,6.3-29.96,21.22,0,10.97,14.17,12.1,22.12,11,22.29-3.1,44.33-9.22,66.12-14.67,19.74-4.95,39.53-9.92,59.06-15.64.17,5.06.31,10.12.46,15.18-7.08-2.23-16.22.74-22.02,4.71-.6.41-1.15.85-1.67,1.33-7.41-4.72-20.2-.51-26.47,3.7-1.09.73-2.03,1.59-2.87,2.54-7.39-4.84-20.29-.6-26.59,3.63-.85.57-1.6,1.24-2.3,1.95-7.02-6.6-21.31-2.07-28.06,2.47-7.74,5.2-8.83,16.35-6.76,25.47-12.05,1.33-29.67,1.76-30.82,15.27-.95,11.08,12.17,14.67,19.44,14.96,22.43.89,45.31-1.81,67.63-3.62,20.67-1.67,41.41-3.34,62.01-5.86.08,4,.16,8,.23,11.99-7.7-2.07-18.05,1.43-24.31,5.26-.93-1.47-2.63-2.45-4.8-3.02-7.62-2.01-20.98.93-26.66,4.72-.44.29-.83.61-1.21.92-.28-.86-.83-1.66-1.71-2.31-6.94-5.14-20.68-1.5-27.3,3.51-.04-.03-.07-.08-.12-.11-7.22-5.35-21.88-1.18-28.11,4.15-3.86,3.3-4.96,7.1-4.86,12.07.07,3.58.27,7.6,1.06,11.32-12.31.29-26.29-.26-31.75,12.88-4.26,10.24,11.69,15.37,18.57,16.26,22.26,2.87,45.29,2.21,67.69,2.38,21.37.17,42.81.36,64.17-.39.24,0,.46-.05.68-.09.12,5.71.24,11.42.35,17.13-2.85-.83-5.84-1.09-8.2-.75-3.54.51-7.96,2.96-10.62,6.34-2.03-1.41-4.65-2.38-6.66-3.05-10.2-3.41-14-1.28-17.17,1.21-1.95-1.23-4.3-2.09-6.15-2.71-5.61-1.88-12.52-1.68-17.04,2.4-2.1-1.74-5.15-2.87-7.42-3.63-5.21-1.74-11.57-1.74-16.08,1.54-2.16-1.83-5.51-2.84-8.24-3.35-4.03-.74-8.49-.47-12.23,1.23-6,2.75-7.99,7.13-9.84,14.53-2.49,10-1.41,22.34-1,32.27-14.78-1.05-29.55-2.25-44.34-3.15-2.67-.16-5.34-.27-8-.38.45-48.7,1.12-97.4,1.71-146.09.2-16.52.44-33.03.6-49.55.15-16.01-1.26-33.42,3.12-48.97,1.21-4.3,3.93-7.74,7.43-10.61,9.53,3.06,18.77,6.74,28.28,9.92,2.03.68,2.72-.68.9-1.71-7.7-4.34-16.38-8.55-25.02-11.17,8.08-5.02,18.41-8.1,25.46-11.48,12.83-6.16,27.52-9,41.12-13.17,17.14-5.25,48.41-15.13,79.86-23.85.01.12.03.25.04.36.68,5.15,1.26,10.32,1.81,15.49-8.01-2.49-18.24,2.53-24.13,7.36ZM188.21,251.61c-8.17.98-16.34,2-24.5,3.05-.59-6.16-2.43-12.9,2.97-16.73,5.12-3.63,15.59-6.81,21.28-2.89.07.05.14.07.21.11-1.5,5.19-1.26,11.19.04,16.45ZM176.63,262.08c32.87-4.06,65.82-7.36,98.83-10.03.1,5.03.21,10.06.31,15.09-36.83,4.53-74.12,7.45-111.17,9.12-6.46.29-12.96.27-19.43.27-11.89,0-15.89-7.51-2.5-9.87,2.14-.42,4.29-.76,6.45-1.02,9.16-1.27,18.33-2.43,27.51-3.57ZM218.46,248.19c-8.11.86-16.22,1.78-24.32,2.73-.51-6.33-2.69-13.43,2.91-17.4,4.84-3.44,14.45-6.45,20.3-3.46-1.41,5.88-.72,12.64,1.11,18.14ZM247.4,245.33c-7.91.72-15.83,1.5-23.73,2.32.3-6.94-3.63-15.71,2.84-20.31,4.61-3.28,13.53-6.15,19.43-3.84-2.2,6.98-1.16,15.54,1.46,21.83ZM251.47,244.97c1.47-6.13-1.23-12.57-.12-18.87.1-.56.31-1.08.61-1.57.87-.49,1.6-1.26,2.04-2.15,3.19-2.35,8.39-3.54,11.16-4.12,4.04-.85,6.77-.55,9.58,2.37.19,7.46.38,14.92.54,22.39-7.94.59-15.87,1.24-23.8,1.95ZM186.19,323.66c-7.52.24-15.04.5-22.56.8-.44-5.69-2.11-13.4,1.44-16.09,3.82-2.9,15.3-6.39,19.97-3.71-.41,1.61-.56,3.35-.52,5.27.09,4.38.36,9.39,1.67,13.73ZM177.27,333.01c33.25-1.14,66.51-1.5,99.78-1.24.11,5,.2,9.99.3,14.99-.17,0-.33-.04-.51-.03-38.37,1.36-77.12,1.02-115.48-.77-6.27-.29-12.7-.46-18.89-1.62-2.62-.49-9.33-2.39-6.12-6.44,3.34-4.21,10.21-3.63,15.02-3.85,8.62-.41,17.26-.73,25.88-1.03ZM215.7,322.91c-8.19.15-16.39.35-24.58.59.11-5.66-2.74-15.44,1.35-18.53,3.96-2.99,19.05-8.87,22.55-2.6-.42,1.38-.69,2.85-.81,4.42-.36,4.74.13,11.05,1.49,16.12ZM246.28,322.57c-8.42.03-16.84.11-25.26.25-.12-6.35-2.87-14.67.69-19.2,3.46-4.42,19.44-7.89,23.96-4.54.17.12.33.21.5.3-.9,1.91-1.38,4.04-1.56,6.38-.38,4.95.17,11.64,1.67,16.81ZM251.42,322.55c.11-6.43-3.02-15.25.68-19.98,3.46-4.42,19.44-7.88,23.96-4.54.11.08.21.12.32.19.16,8.17.32,16.34.48,24.5-8.48-.12-16.96-.18-25.44-.17ZM266.67,381.96c3.39-3.41,7.61-2.58,11.34-1.36,0,.21.21,7.03.33,9.39-6.25.31-18.09-1.58-11.67-8.03ZM278.61,395.55c.23,5.5.31,11.03-.44,16.29-.83,5.82-8.63,8.7-15.04,10.07-.08-6.6-.18-13.19-.41-19.79-.09-2.72,0-5.47.12-8.23,2.26,1.11,4.92,1.73,7.58,1.96,1.84.16,5.13.23,8.19-.3ZM254.07,423.07c-5.04.28-10.17.1-15.28-.17-.09-7.61-.19-15.21-.45-22.81-.06-1.69-.04-3.4,0-5.11.31.14.61.29.92.41,2.58,1.01,9.29,1.88,14.45.92-.81,9.02.1,18.84.35,26.75ZM249.95,390.41c-3.08-.06-6.17-.85-8.97-2.14-2.17-1-2.13-3.5-.32-4.82,1.23-.9,2.96-.85,4.41-.85,2.92.02,8.4.52,10.86,2.13-.44,1.37-1.07,4.24-1.36,5.71-1.69.13-3.98-.03-4.62-.04ZM229.73,422.46c-.93-.04-1.86-.07-2.78-.1-4.25-.1-8.49-.23-12.74-.38-.08-6.55-.18-13.09-.41-19.64-.11-3.1.03-6.25.17-9.4.62.35,1.28.68,1.98.95,2.4.94,8.37,1.75,13.35,1.09-.75,9.39.28,19.54.43,27.48ZM226.63,388.9c-3.08-.06-6.17-.85-8.97-2.13-2.17-1-2.13-3.5-.32-4.82,1.23-.9,5.98-2.65,13.96,2.19-.5,1.55-.9,3.18-1.21,4.85-1.44.02-2.96-.08-3.46-.09ZM205.1,421.61c-5.05-.22-10.1-.46-15.14-.73-.08-6.93-.18-13.85-.42-20.77-.09-2.75,0-5.53.12-8.32.58.32,1.19.62,1.84.88,2.45.96,8.61,1.79,13.65,1.05-1.25,9.14-.38,19.44-.04,27.89ZM202.16,387.68c-3.08-.06-6.17-.85-8.97-2.14-2.17-1-2.13-3.5-.32-4.82,1.23-.9,2.96-.85,4.4-.85,2.92.02,8.2,1.55,10.61,3.57-.61,1.36-1.11,2.79-1.53,4.29-1.63.07-3.61-.05-4.19-.06ZM180.86,420.38c-3.91-.23-7.82-.46-11.73-.71-.93-.06-1.86-.13-2.79-.19-.08-6.45-.18-12.91-.4-19.37-.09-2.71,0-5.46.12-8.21,4.27,1.85,9.91,2.39,14.53,1.73-.9,8.95-.01,18.76.26,26.75ZM172.99,379.08c2.88-.71,6.16.08,8.88,1.02.64.22,1.25.55,1.86.88-1,2.19-1.75,4.56-2.27,7.08-18.69.07-12.72-7.92-8.47-8.97ZM45.29,394.95c-8.24-1.23-9.41-5.55-9.27-14.17.17-10.2.28-20.4.4-30.6.24-21.06.47-42.12,1-63.18.55-21.61,1.55-43.21,3.08-64.78.67-9.44-1.01-23.12,9.61-26.81,5.22-.32,10.44-.41,15.67.02,7.82.65,6.44,6.06,6.35,12.21-.08,5.34-.16,10.69-.23,16.03-.32,22.4-.6,44.8-.97,67.2-.38,22.44-.9,44.88-1.63,67.31-.32,9.9.17,20.33-1.52,30.11-1.74,10.11-15.1,7.75-22.48,6.65ZM440.45,582.33c-.87,5.59-7.78,7.74-12.06,9.94-29.17,14.97-58.03,31.1-87.83,44.78-15.53,7.12-31.59,5.85-48.1,4.26-16.46-1.58-32.91-3.23-49.34-5-30.94-3.34-61.79-7.35-92.48-12.51-14.71-2.47-29.36-5.29-43.97-8.34-7.53-1.57-15.04-3.26-22.53-4.99-8.18-1.89-17.94-2.51-21.3-11.49-4.91-13.14-3.48-30.58-3.87-44.42-.46-16.52-.51-33.05-.53-49.57-.01-10.86,4.41-12.56,13.54-11.27,54.33,7.67,109.55,11.55,164.22,14.17,14.85.71,29.66,1.63,44.49,2.57,10.7.67,21.9,1.1,32.58-.76-2.02,17.64,1.21,91.93,4.85,110.81,1.02,5.28,3.99,4.66,4.13-.56.49-18.91-1.9-93.3-3.97-111.32.54-.14,1.09-.24,1.63-.39,13.08-3.69,24.94-15.99,31.37-29.67.27,12.54.61,25.07.79,37.56.43,30.67.52,61.41,2.37,92.03.5,8.25,3.96,8.28,4.16,0,.73-30.66-.16-61.37-.71-92.03-.54-29.74-.15-59.73-2.07-89.42,2.99-4.78,4.72-10.65,4.83-17.3.16-9.9-.17-19.81-.46-29.7-.35-11.79.72-23.91-1.41-35.53-.86-4.68-2.94-8.29-5.79-10.99.47-48.79-.66-97.82-4.28-146.47,5.41-5.5,8.54-13.33,8.29-22.79-.26-9.9-1.02-19.78-1.73-29.66-.85-11.74-.23-23.96-2.85-35.45-1.58-6.92-5.73-11.42-11.05-14-.05-11.51-.44-28.15-5.73-39.7,9.87,5.82,20.69,15.25,23.56,17.44,14.86,11.35,29.15,23.59,42.83,36.33,5.05,4.7,9.92,9.41,13.77,15.18,5.91,8.86,7.36,20.34,8.53,30.68,1.01,8.89,1.45,17.85,1.98,26.77,4.55,76.99,6.82,154.14,9.51,231.21,1.35,38.57,2.64,77.15,3.9,115.73.33,9.94.66,19.87.87,29.81.16,7.72.23,15.44.27,23.16.02,3.63.18,7.31-.39,10.92Z"/>
    </g>
  </g>
</svg>