<svg id="Layer_1" data-name="Layer 1" xmlns="http://www.w3.org/2000/svg" width="68" height="68" viewBox="0 0 64 70"><defs><style>.cls-1{fill:#b4e66e;}.cls-2{fill:#a0d755;}</style></defs><path class="cls-1" d="M47.84,45.55,37.63,39.81a3.06,3.06,0,0,0-3.67.5l-3.58,3.58a3.06,3.06,0,0,1-4,.3A67.66,67.66,0,0,1,12.77,30.57a3.06,3.06,0,0,1,.3-4L16.66,23a3.07,3.07,0,0,0,.5-3.67L11.42,9.14A3.05,3.05,0,0,0,7.23,8.06a2.8,2.8,0,0,0-.66.53L2.79,12.37c-4.93,4.93.44,18.28,12,29.83s24.9,16.91,29.83,12l3.78-3.79a3.05,3.05,0,0,0,.12-4.32A3,3,0,0,0,47.84,45.55Z" transform="translate(0 0.01)"/><path class="cls-2" d="M14.05,25.62,16.66,23a3,3,0,0,0,.5-3.66L11.42,9.14A3.05,3.05,0,0,0,7.23,8.06a2.8,2.8,0,0,0-.66.53L5.4,9.75Z" transform="translate(0 0.01)"/><path class="cls-2" d="M31.36,42.92,34,40.31a3.07,3.07,0,0,1,3.67-.5l10.21,5.74a3.06,3.06,0,0,1,1.07,4.19,2.85,2.85,0,0,1-.53.67l-1.16,1.16Z" transform="translate(0 0.01)"/><path d="M48.3,44.72,38.1,39a4,4,0,0,0-4.81.66L29.7,43.22a2.11,2.11,0,0,1-2.73.21A66.56,66.56,0,0,1,13.53,30a2.1,2.1,0,0,1,.22-2.73l3.58-3.59a4,4,0,0,0,.67-4.8L12.26,8.67A3.89,3.89,0,0,0,9.38,6.72,4.08,4.08,0,0,0,5.89,7.91L2.11,11.69C-.56,14.37-.7,19.15,1.72,25.16,4,30.91,8.42,37.2,14.1,42.88S26.07,53,31.82,55.26A21,21,0,0,0,39.44,57a8,8,0,0,0,5.84-2.1l3.78-3.79a4.08,4.08,0,0,0,1.19-3.49A3.85,3.85,0,0,0,48.3,44.72Zm-.6,5-.66.66-8.7-4.75a1,1,0,0,0-.92,1.68l8.21,4.48-1.71,1.71c-2.06,2.07-6.22,2.06-11.4,0C27,51.27,20.94,47,15.44,41.52S5.71,30,3.49,24.45c-2.08-5.18-2.09-9.34,0-11.4l1.71-1.72L6.09,13a1,1,0,0,0,1.28.42,1,1,0,0,0,.42-1.29l0,0L6.58,9.92l.66-.66a2.3,2.3,0,0,1,1.58-.67l.3,0a2,2,0,0,1,1.47,1l5.75,10.21A2.12,2.12,0,0,1,16,22.33L14.28,24,9.8,15.83a1,1,0,0,0-1.68.92l4.75,8.7-.47.47a4,4,0,0,0-.4,5.22A68.66,68.66,0,0,0,25.83,45a4,4,0,0,0,5.23-.41l.47-.47,2.17,1.19a1,1,0,0,0,.91-1.68l-1.68-.91L34.64,41a2.12,2.12,0,0,1,2.52-.35l10.21,5.75a2,2,0,0,1,1,1.46,2.24,2.24,0,0,1-.65,1.89Z" transform="translate(0 0.01)"/><path d="M38.89,15.32a1,1,0,0,0-1.14.72l-2,9.18a1,1,0,0,0,.73,1.14.68.68,0,0,0,.2,0h6.19v3.13a1,1,0,1,0,1.91,0h0V26.38h1.08a1,1,0,1,0,0-1.91H44.74V16.25a1,1,0,1,0-1.91,0h0v8.22h-5l1.78-8a1,1,0,0,0-.73-1.14Z" transform="translate(0 0.01)"/><path d="M28.92,24.15c-2.08,1.14-4.45,2.43-4.45,5.35a1,1,0,0,0,1,1h8.15a1,1,0,1,0,0-1.91h-7c.41-1.1,1.59-1.79,3.29-2.72,2.09-1.14,4.7-2.57,4.7-5.8a5,5,0,0,0-10.07,0,1,1,0,1,0,1.91,0,3.14,3.14,0,0,1,6.25,0C32.63,22,31.23,22.89,28.92,24.15Z" transform="translate(0 0.01)"/><path d="M53.79,39.78l-1.86.37A23.39,23.39,0,1,0,19.32,6.61a23.72,23.72,0,0,0-2.83,3.33.94.94,0,0,0,.19,1.33A1,1,0,0,0,18,11.08l0,0A21.47,21.47,0,1,1,50.41,39l.43-2.13A1,1,0,0,0,49,36.45l-1,5.1a1,1,0,0,0,.75,1.13,1.21,1.21,0,0,0,.38,0l5.1-1a1,1,0,0,0-.38-1.88Z" transform="translate(0 0.01)"/><path d="M35.62,4.08a1,1,0,0,0-.95,1v2a1,1,0,1,0,1.91,0h0V5A1,1,0,0,0,35.62,4.08Z" transform="translate(0 0.01)"/><path d="M51,23.39a1,1,0,0,0,1,.95h2a1,1,0,0,0,0-1.91h-2a1,1,0,0,0-1,1Z" transform="translate(0 0.01)"/><path d="M19.25,15l1.77,1A1,1,0,0,0,22,14.4l-1.76-1a1,1,0,0,0-1.31.35A1,1,0,0,0,19.25,15Z" transform="translate(0 0.01)"/><path d="M49.27,32.37l1.77,1a1,1,0,1,0,1-1.65h0l-1.77-1a1,1,0,1,0-1,1.65Z" transform="translate(0 0.01)"/><path d="M43.78,10.21a.94.94,0,0,0,.83-.47l1-1.77A1,1,0,0,0,44,7L43,8.78a1,1,0,0,0,.35,1.31,1,1,0,0,0,.48.13Z" transform="translate(0 0.01)"/><path d="M26.64,37l-1,1.76a1,1,0,1,0,1.65,1l1-1.77a1,1,0,0,0-1.65-1Z" transform="translate(0 0.01)"/><path d="M51,13.38l-1.77,1a1,1,0,1,0,1,1.66L52,15a1,1,0,1,0-1-1.65h0Z" transform="translate(0 0.01)"/><path d="M18.9,33a1,1,0,0,0,1.31.35h0l1.76-1A1,1,0,1,0,21,30.72l-1.77,1A1,1,0,0,0,18.9,33Z" transform="translate(0 0.01)"/><path d="M27.47,10.21a.94.94,0,0,0,1-1,.91.91,0,0,0-.13-.48L27.27,7a1,1,0,0,0-1.65,1l1,1.77A1,1,0,0,0,27.47,10.21Z" transform="translate(0 0.01)"/><path d="M43.3,36.69A1,1,0,0,0,43,38h0l1,1.77a1,1,0,1,0,1.66-1l-1-1.76a1,1,0,0,0-1.31-.35Z" transform="translate(0 0.01)"/></svg>