<svg id="Layer_1" data-name="Layer 1" xmlns="http://www.w3.org/2000/svg" width="68" height="68" viewBox="0 0 511.82 319.83"><defs><style>.cls04-1{fill:#040404;}.cls04-2{fill:#0f0e07;}.cls04-3{fill:#fdda63;}.cls04-4{fill:#fedb64;}.cls04-5{fill:#fec750;}.cls04-6{fill:#fbec80;}.cls04-7{fill:#5a5c6c;}.cls04-8{fill:#f8ea7e;}.cls04-9{fill:#00d6fe;}.cls04-10{fill:#dfa345;}.cls04-11{fill:#dca244;}.cls04-12{fill:#00bffa;}.cls04-13{fill:#f6f1b7;}.cls04-14{fill:#c3cbde;}</style></defs><path class="cls04-1" d="M481,555.92H466c-.53-1.53-1.94-.95-3-1.16-29.79-6.07-50.19-29.25-52-59.43-.2-3.36-1.53-3.63-4.26-3.63q-88.71.09-177.42,0c-3.33,0-4.12,1-4.26,4.17a62.93,62.93,0,0,1-45.72,57.29c-3.73,1-7.51,1.87-11.27,2.79h-15c-.16-.78-.75-.94-1.44-1-27.39-4.1-51.91-27.78-53.34-60.27-.11-2.55-1.1-2.95-3.3-2.91-6.66.12-13.32.16-20,0-11.2-.25-19.33-5.22-23.57-15.88-.29-.73-.28-1.69-1.34-1.86V353c3-3.93,7.08-4.74,11.82-4.73q115.7.13,231.4.15c4,0,5.36-.78,5.28-5.09-.29-15-.15-30-.1-45,.05-13.65-.12-27.31.43-40.95.38-9.32,5.93-15.56,14.29-19.4,1.28-.59,3-.33,3.78-1.94h3c1.45,1.68,3.42,1,5.15,1q52.34.06,104.66,0c1.74,0,3.7.69,5.15-1h1c3.32,2.22,6.59,4.46,5.39,9.31-1.56,6.28-6.81,5.7-11.68,6a11.45,11.45,0,0,0,.36,2.18q16.34,42.48,32.63,85c.88,2.3,2.27,3,4.36,3.33,22.62,3.72,45.19,7.87,67.89,11,13.08,1.83,23,6.7,27,20.1V480c-3.79,8.93-10.64,12.71-20.12,11.73-3.44-.35-3.93,1.12-4.1,4.14a63.66,63.66,0,0,1-42.24,56.26C490.7,553.82,485.61,554,481,555.92ZM546.75,444a29,29,0,0,1,.18-3c.67-4.12-.53-6.07-5.18-5.48A27.6,27.6,0,0,1,531,434.35c-5.53-2-9.64-5.7-13-10.4l-.22-.38-.44.06,0-.14a47.91,47.91,0,0,1-2.5-18c.19-5.81,0-11.64-.09-17.46.87-5.37,4.22-7.56,9.45-7.51,6.33.06,12.67-.22,19,.1,3.85.19,4.22-1.58,3.54-4.48-1.05-4.45-4.1-6.5-8.48-7.21-15.59-2.55-31.13-5.45-46.76-7.77-14-2.07-27.68-5.82-42-5.78-27.82.09-55.64-.12-83.45.12-8.63.07-16.05-2-22.11-8.28a28.37,28.37,0,0,1-5.38-17.2q.15-25.94,0-51.85c0-4.66,1.43-8.06,5.93-9.81h75c-2.11-5.6-4-10.53-5.82-15.46-.57-1.52-1.77-1.69-3.2-1.68-29.13,0-58.26,0-87.39.07-5,0-8.4,2.36-9.45,7.75a19.87,19.87,0,0,0-.12,9.23q0,84.9,0,169.8c0,2,.2,4,.3,6-.18,2.94-.25,5.9-.58,8.82-.47,4.26-3.17,6.59-7.26,6.59s-6.79-2.32-7.27-6.59c-.32-2.92-.39-5.88-.58-8.82.53-18.65.5-37.29,0-55.94.11-6,.32-12,.32-17.93,0-7.74.89-6.75-6.49-6.75q-57.48,0-115,0c-35.65,0-71.31.09-107-.11-4.31,0-5.33,1.23-5.09,5.28.39,6.48.2,13,.26,19.48v56c-.05,5.31,0,10.62-.19,15.92-.64,14.15,1.13,18,18,16.61a87.52,87.52,0,0,1,9.46.3c5.64.75,8.16-1.2,10.12-6.93A57.93,57.93,0,0,1,133,435.74c33.33-16.15,69.45-3.64,86.21,29.48,1.72,12.92,10.86,12.51,20.41,11.37.17,0,.33-.07.49-.1,2,.08,4,.23,6,.23H389.92c2,0,4-.15,6-.22,4.16.08,8.33,0,12.47.3,3.2.26,4.69-.9,5.65-4,4.58-14.72,13.72-25.92,26.58-34.37,32.87-21.57,80.53-5.5,93,31.8,1.87,5.6,4.47,7.24,9.86,6.6,2.44-.28,3.61-.72,3.51-3.43-.21-5.49-.14-11-.19-16.47ZM353.93,300.06c-.09,9.29-.22,18.59-.25,27.88,0,10.07,2.3,12.41,12.21,12.41q37.39,0,74.78,0h6.66l-15.67-40.28c-1.74-4.66-3.56-9.3-5.2-14-.69-2-1.67-2.91-3.93-2.9q-32.73.12-65.45,0c-2.59,0-3.58.79-3.45,3.41C353.85,291.08,353.84,295.57,353.93,300.06ZM474.48,443.83c-26.64-.07-48.49,21.49-48.61,47.94a49.11,49.11,0,0,0,48.26,49c25.79.31,48.61-22.26,48.74-48.22A48.71,48.71,0,0,0,474.48,443.83Zm-312.48,0c-26.81-.06-48.9,21.8-48.85,48.33,0,26.3,22.52,48.69,48.84,48.66,26.15,0,48.14-22.24,48.16-48.61A48.43,48.43,0,0,0,162,443.83Zm384.93-35.54h.18c-.19-4.11,1.18-9.69-1-11.94-2.52-2.66-8.15-.6-12.42-.86-.49,0-1,0-1.49,0-1.64-.12-2.4.53-2.37,2.27.11,5.14-.25,10.31.26,15.4.58,5.75,5.62,8.31,14.06,7.42,5.38-.57,1.81-4.88,2.65-7.35C547.34,411.75,546.93,410,546.93,408.29Z" transform="translate(-50.1 -236.1)"/><path class="cls04-2" d="M435,236.1c-1.45,1.67-3.41,1-5.15,1q-52.33.06-104.66,0c-1.73,0-3.7.7-5.15-1Z" transform="translate(-50.1 -236.1)"/><path class="cls04-3" d="M514.75,388c0,5.82.28,11.65.09,17.46a47.91,47.91,0,0,0,2.5,18c-2,.92-3.08-.78-4.47-1.5-24.31-12.42-48.84-13.58-73.72-1.65-11.63,5.57-20.89,14-29.15,23.67H313.85c-.1-2-.3-4-.3-6q0-84.9,0-169.8l31,.09c-4.5,1.75-6,5.15-5.93,9.81q.18,25.92,0,51.85a28.37,28.37,0,0,0,5.38,17.2,10.59,10.59,0,0,1-1.61,1.12A22.47,22.47,0,0,0,332,379.85c1.51,2.7,3.54,5.19,6.79,6.16,0,7.23,2.38,9.55,10,9.56q45.33.06,90.66,0c6.77,0,8.32-1.23,10.49-7.56h16.74c.71,5.49,4.19,7.57,9.34,7.58,4,0,8-.06,12,0,5.38.12,8.94-2,10-7.59Z" transform="translate(-50.1 -236.1)"/><path class="cls04-4" d="M298.18,388.06c.48,18.65.51,37.29,0,55.94H226c-5.81-6.39-11.7-12.58-18.84-17.68-25.26-18-61.81-19-87.91-2.16-8.49,5.48-15.47,12.45-22.11,19.89L65.26,444V388H82c2,6.36,3.63,7.57,11,7.57q42.18,0,84.38,0,46.68,0,93.36,0c7.38,0,9.17-1.31,10.86-7.57Z" transform="translate(-50.1 -236.1)"/><path class="cls04-5" d="M226,444h72.14c.19,2.94.26,5.9.58,8.82.48,4.27,3.18,6.59,7.27,6.59s6.79-2.33,7.26-6.59c.33-2.92.4-5.88.58-8.82H410c-1,1.69-2.05,3.39-3.09,5.08-5.25,8.5-9.53,17.39-11,27.41-2,.07-4,.22-6,.22H246.08c-2,0-4-.15-6-.23a24.18,24.18,0,0,0-.37-3C237.06,462.81,232.14,453.13,226,444Z" transform="translate(-50.1 -236.1)"/><path class="cls04-6" d="M514.75,388H498c-1-5.54-4.57-7.71-10-7.57-4.15.11-8.31,0-12.47,0-5,.06-8.17,2.34-8.85,7.52H450c-1.09-5.12-4.19-7.58-9.49-7.57q-46.33.06-92.67,0c-4.15,0-7.48,1.33-9,5.55-3.25-1-5.28-3.46-6.79-6.16a22.47,22.47,0,0,1,10.36-31.54,10.59,10.59,0,0,0,1.61-1.12c6.06,6.25,13.48,8.35,22.11,8.28,27.81-.24,55.63,0,83.45-.12,14.27,0,28,3.71,42,5.78,15.63,2.32,31.17,5.22,46.76,7.77,4.38.71,7.43,2.76,8.48,7.21.68,2.9.31,4.67-3.54,4.48-6.31-.32-12.65,0-19-.1C519,380.44,515.62,382.63,514.75,388Z" transform="translate(-50.1 -236.1)"/><path class="cls04-7" d="M474.48,443.83a48.71,48.71,0,0,1,48.39,48.76c-.13,26-22.95,48.53-48.74,48.22a49.11,49.11,0,0,1-48.26-49C426,465.32,447.84,443.76,474.48,443.83Zm22.35,41a21.5,21.5,0,0,0-15.05-15.21c-.46-6.69-2.82-8.92-9.34-8.73a28.75,28.75,0,0,0-21.73,10.58c-9.23,10.85-10.49,24.94-3.57,36.63a31.88,31.88,0,0,0,34.27,14.73c12.48-2.62,22.4-13.79,24.26-27.33C506.62,488.59,503.81,485.2,496.83,484.84Z" transform="translate(-50.1 -236.1)"/><path class="cls04-7" d="M162,443.83a48.43,48.43,0,0,1,48.15,48.38c0,26.37-22,48.57-48.16,48.61-26.32,0-48.8-22.36-48.84-48.66C113.1,465.63,135.19,443.77,162,443.83Zm22,41.08a19.31,19.31,0,0,0-14.95-15c-.07-7-2.35-9.24-9.32-9.06-18.66.51-32.49,18.5-28.67,37.66a30.81,30.81,0,0,0,32.15,25c16.76-.93,29.41-14,29.86-29.37C193.28,487.29,191.06,485,184,484.91Z" transform="translate(-50.1 -236.1)"/><path class="cls04-8" d="M82,388H65.26c-.06-6.5.13-13-.26-19.48-.24-4,.78-5.3,5.09-5.28,35.65.2,71.31.11,107,.11q57.48,0,115,0c7.38,0,6.5-1,6.49,6.75,0,6-.21,11.95-.32,17.93L281.53,388c-1.65-6.06-3.37-7.51-9.87-7.52q-89.87-.06-179.73-.05C86.55,380.44,83,382.4,82,388Z" transform="translate(-50.1 -236.1)"/><path class="cls04-9" d="M431.66,300.08l15.67,40.28h-6.66q-37.4,0-74.78,0c-9.91,0-12.24-2.34-12.21-12.41,0-9.29.16-18.59.25-27.88Z" transform="translate(-50.1 -236.1)"/><path class="cls04-10" d="M226,444c6.12,9.13,11,18.81,13.72,29.53a24.18,24.18,0,0,1,.37,3c-.16,0-.32.08-.49.1-9.55,1.14-18.69,1.55-20.41-11.37-16.76-33.12-52.88-45.63-86.21-29.48a57.93,57.93,0,0,0-30.39,34.13c-2,5.73-4.48,7.68-10.12,6.93a87.52,87.52,0,0,0-9.46-.3c2.67-11.7,8-22.25,14.13-32.45,6.64-7.44,13.62-14.41,22.11-19.89,26.1-16.84,62.65-15.88,87.91,2.16C214.32,431.42,220.21,437.61,226,444Z" transform="translate(-50.1 -236.1)"/><path class="cls04-11" d="M395.89,476.5c1.49-10,5.77-18.91,11-27.41,1-1.69,2.06-3.39,3.09-5.08,8.26-9.68,17.52-18.1,29.15-23.67,24.88-11.93,49.41-10.77,73.72,1.65,1.39.72,2.51,2.42,4.47,1.5a.7.7,0,0,1,0,.14c0,.26,0,.52,0,.77L518,424c3.34,4.7,7.45,8.43,13,10.4a27.5,27.5,0,0,0,7.86,9.72c2.45,4.41,4.64,9,8,12.87.05,5.49,0,11,.19,16.47.1,2.71-1.07,3.15-3.51,3.43-5.39.64-8-1-9.86-6.6-12.48-37.3-60.14-53.37-93-31.8-12.86,8.45-22,19.65-26.58,34.37-1,3.09-2.45,4.25-5.65,4C404.22,476.48,400.05,476.58,395.89,476.5Z" transform="translate(-50.1 -236.1)"/><path class="cls04-6" d="M344.5,268.33l-31-.09a19.87,19.87,0,0,1,.12-9.23c1.05-5.39,4.49-7.73,9.45-7.75,29.13-.11,58.26,0,87.39-.07,1.43,0,2.63.16,3.2,1.68,1.85,4.93,3.71,9.86,5.82,15.46Z" transform="translate(-50.1 -236.1)"/><path class="cls04-12" d="M431.66,300.08l-77.73,0c-.09-4.49-.08-9-.3-13.46-.13-2.62.86-3.42,3.45-3.41q32.73.12,65.45,0c2.26,0,3.24.91,3.93,2.9C428.1,290.78,429.92,295.42,431.66,300.08Z" transform="translate(-50.1 -236.1)"/><path class="cls04-5" d="M97.16,444.05C91,454.25,85.7,464.8,83,476.5c-16.83,1.35-18.6-2.46-18-16.61.24-5.3.14-10.61.19-15.92Z" transform="translate(-50.1 -236.1)"/><path class="cls04-13" d="M546.93,408.29c0,1.66.41,3.46-.09,4.94-.84,2.47,2.73,6.78-2.65,7.35-8.44.89-13.48-1.67-14.06-7.42-.51-5.09-.15-10.26-.26-15.4,0-1.74.73-2.39,2.37-2.27.5,0,1,0,1.49,0,4.27.26,9.9-1.8,12.42.86,2.14,2.25.77,7.83,1,11.94Z" transform="translate(-50.1 -236.1)"/><path class="cls04-3" d="M538.82,444.07a27.5,27.5,0,0,1-7.86-9.72,27.6,27.6,0,0,0,10.79,1.18c4.65-.59,5.85,1.36,5.18,5.48a29,29,0,0,0-.18,3Z" transform="translate(-50.1 -236.1)"/><path class="cls04-5" d="M538.82,444.07l7.93-.1,0,13C543.46,453.06,541.27,448.48,538.82,444.07Z" transform="translate(-50.1 -236.1)"/><path class="cls04-3" d="M518,424l-.66.45c0-.25,0-.51,0-.77l.45-.06Z" transform="translate(-50.1 -236.1)"/><path class="cls04-2" d="M338.79,386c1.56-4.22,4.89-5.55,9-5.55q46.34,0,92.67,0c5.3,0,8.4,2.45,9.49,7.57-2.17,6.33-3.72,7.55-10.49,7.56q-45.33.06-90.66,0C341.17,395.56,338.84,393.24,338.79,386Z" transform="translate(-50.1 -236.1)"/><path class="cls04-2" d="M466.73,388c.68-5.18,3.84-7.46,8.85-7.52,4.16-.05,8.32.07,12.47,0,5.41-.14,8.94,2,10,7.57-1,5.55-4.6,7.71-10,7.59-4-.08-8,0-12,0C470.92,395.57,467.44,393.49,466.73,388Z" transform="translate(-50.1 -236.1)"/><path class="cls04-2" d="M82,388c1-5.61,4.58-7.57,10-7.57q89.87.07,179.73.05c6.5,0,8.22,1.46,9.87,7.52-1.69,6.26-3.48,7.57-10.86,7.57q-46.68,0-93.36,0-42.19,0-84.38,0C85.6,395.58,83.94,394.37,82,388Z" transform="translate(-50.1 -236.1)"/><path class="cls04-1" d="M496.83,484.84c7,.36,9.79,3.75,8.84,10.67-1.86,13.54-11.78,24.71-24.26,27.33a31.88,31.88,0,0,1-34.27-14.73c-6.92-11.69-5.66-25.78,3.57-36.63a28.75,28.75,0,0,1,21.73-10.58c6.52-.19,8.88,2,9.34,8.73-1.5,4.05-4.56,5.87-8.73,6.21a16.9,16.9,0,0,0-3.88.7A16.49,16.49,0,0,0,458,494.86a16.93,16.93,0,0,0,16.49,13.87A16.59,16.59,0,0,0,490.64,494C491.15,489.62,492.28,486.2,496.83,484.84Z" transform="translate(-50.1 -236.1)"/><path class="cls04-14" d="M496.83,484.84c-4.55,1.36-5.68,4.78-6.19,9.11a16.59,16.59,0,0,1-16.15,14.78A16.93,16.93,0,0,1,458,494.86a16.49,16.49,0,0,1,11.17-18.32,16.9,16.9,0,0,1,3.88-.7c4.17-.34,7.23-2.16,8.73-6.21A21.5,21.5,0,0,1,496.83,484.84Z" transform="translate(-50.1 -236.1)"/><path class="cls04-1" d="M184,484.91c7.06.1,9.28,2.38,9.07,9.31-.45,15.4-13.1,28.44-29.86,29.37a30.81,30.81,0,0,1-32.15-25c-3.82-19.16,10-37.15,28.67-37.66,7-.18,9.25,2,9.32,9.06-1.38,4-4.56,5.35-8.44,5.88-9.57,1.29-15.86,8.33-15.38,17a16.88,16.88,0,0,0,15.82,15.82c8.62.52,15.84-5.93,17.06-15.39C178.61,489.4,179.92,486.23,184,484.91Z" transform="translate(-50.1 -236.1)"/><path class="cls04-14" d="M184,484.91c-4.08,1.32-5.39,4.49-5.89,8.39-1.22,9.46-8.44,15.91-17.06,15.39a16.88,16.88,0,0,1-15.82-15.82c-.48-8.7,5.81-15.74,15.38-17,3.88-.53,7.06-1.85,8.44-5.88A19.31,19.31,0,0,1,184,484.91Z" transform="translate(-50.1 -236.1)"/></svg>