<svg id="Layer_1" data-name="Layer 1" xmlns="http://www.w3.org/2000/svg" width="68" height="68" viewBox="0 0 511.8 437.8"><defs><style>.cls03-1{fill:#040303;}.cls03-2{fill:#668b96;}.cls03-3{fill:#fcdccd;}.cls03-4{fill:#7ba0b0;}.cls03-5{fill:#fdccbd;}.cls03-6{fill:#fcae9d;}.cls03-7{fill:#fbcabc;}.cls03-8{fill:#b8e86a;}.cls03-9{fill:#faad9b;}.cls03-10{fill:#f9c9bb;}.cls03-11{fill:#f5d6c7;}</style></defs><path class="cls03-1" d="M50.1,348V338c2.13-3.47,3.64-7.26,6.67-10.25q24-23.67,47.64-47.61c3.55-3.58,7.18-4.52,11.57-1.88,3.69,5.08,3.56,7.85-.69,12.22-2.9,3-5.87,5.9-8.82,8.85L69.72,336.1c-6.32,6.32-6.33,7.15.17,13.6,1.88,1.87,3.87,3.63,5.81,5.44q26.39,26.6,52.78,53.17c2.94,2.95,5.89,2.45,8.71-.38q48.23-48.24,96.49-96.46c3-3,3.35-6,.22-9.06L182.18,251c-2.76-2.86-5.47-5.77-8.29-8.56-4.22-4.19-6.23-4.21-10.41-.06C156.63,249.15,149.85,256,143,262.8c-4.94,4.91-6.49,5.16-12.69,2.21-2.46-4.12-2.86-8,.95-11.7,7.85-7.69,15.45-15.64,23.38-23.25,8.13-7.82,19.86-8,27.86-.09q31.66,31.23,62.92,62.86a18.78,18.78,0,0,1,5,18.86,5,5,0,0,0,1.63,5.64Q260,325,267.6,332.89c1.74,1.83,3.1,2.31,5.51,1.08a54.06,54.06,0,0,1,21.56-5.63c3.51-.2,3.91-1.58,3.87-4.52-.14-11.32-.05-22.64-.05-34,0-8,0-8-8.09-8C267.89,281.6,250,267.46,245.55,246c-1.66-8-1.17-16.27-.59-24.4.31-4.44,3.36-7.94,7.54-8.19,12.4-.75,25-2,36.62,4.4,3,1.65,5.86,3.56,8.85,5.38,6.1-29.28,18.37-43.09,40-45.2l21.07-.07c6,2.07,8.13,4.75,8.26,10.9.11,5.15.11,10.33-.14,15.48a44.21,44.21,0,0,1-30.88,40.05c-6.32,2.06-12.77,2.1-19.26,2-2.48-.05-3.56.56-3.55,3.3q.12,37.47,0,74.95c0,2,.44,3,2.78,2.91,10.15-.49,20.3-.71,30.44-1.27,7.15-.39,10.44-6.54,15-10.73.8-.74.32-1.9,0-2.86-2.44-8.61.38-15.52,6.55-21.64,19.63-19.47,39.13-39.08,58.68-58.62,10.77-10.75,21.88-10.8,32.57-.12q45.06,45,90.12,90.06c4.76,4.75,9.66,9.34,12.22,15.76v10c-2.19,3-3.38,6.68-6.14,9.43q-31,30.82-61.82,61.76c-5.53,5.52-12.23,7.07-19.75,5.52-1.09-.23-2.3-1.35-3.24-.32-4,4.35-10,7.39-11,13.75-2.5,14.84-10.29,26.37-21.13,36.32-5.86,5.37-5.67,5.58-.06,11.54,13.8,14.64,9.6,36.75-8.59,45.45-.78.38-2.11.1-2.29,1.43,9,14.74,8.45,28.21-1.58,38.3s-23.6,10.78-38.62,1.65c-11.1,20.72-27.31,24.83-46.05,11.49-2.51-1.78-2.49,0-3.19,1.37-5.39,10.83-14,16.52-26.25,16.47-1.32,0-2.68-.37-3.69.88C303.14,609.59,296,612.9,288,614.9h-7c-.47-1.52-1.94-1.06-2.94-1.36-9-2.72-15.52-8.38-18.75-17.18-1.2-3.26-2.47-2.81-5-2.05-13.92,4.25-28.07-2.06-33.9-15.4-1.39-3.17-2.34-3.23-5.21-1.95a27.85,27.85,0,0,1-36.85-36.52c1.4-3.11,1.28-4.08-2-5.53a27.78,27.78,0,0,1-9.31-44.27,70.58,70.58,0,0,1,8.11-8.11c3.07-2.47,2.56-4-.13-6.38-11.78-10.33-20.57-22.4-23.14-38.46-1-6.06-7-9-10.87-13.29-.64-.69-1.53-.27-2.34,0-9.2,2.64-16.37-.6-22.85-7.2-17.51-17.81-35.23-35.4-52.92-53C58.07,359.24,52.92,354.56,50.1,348ZM225.2,482.91c0-8.65-12.2-15.5-20.17-8.5a307.51,307.51,0,0,0-27.44,27.43C171,509.33,176,520.4,186,522c4.52,1.21,8.18-.55,11.26-3.58q12.27-12,24.32-24.31C224.61,491.07,226.43,487.43,225.2,482.91ZM228,424c4.77,1,8.39-1.11,11.59-4.3,7.43-7.4,14.87-14.78,22.23-22.25a9.73,9.73,0,0,1,9-3.06,174.09,174.09,0,0,0,37.34,1.46c19.23-1.3,37.39-5.88,52.44-19,4.43-3.85,8.74-3.86,11.81-.27s2.18,7.75-2.13,11.69c-5.15,4.7-11.08,8.3-17.32,11.93l62.85,62.82c6.52,6.52,6.44,6.44,13.14,0,6.51-6.31,13.12-12.76,14.74-22,1.72-9.83,5.86-17.93,13.52-24.19,2.52-2.06,2-3.37-.1-5.44-8.47-8.24-16.66-16.75-25.14-25-3.9-3.79-5.05-7.65-1.85-12.34,5.61-3.2,7.79-3,12.31,1.47,10.63,10.56,21.18,21.2,31.81,31.76,4,3.95,6.28,4,10.12.21q29.88-29.81,59.68-59.69c4-4,4-5.95-.09-10.05q-22.38-22.47-44.83-44.87-21-21-42.15-41.85c-2.76-2.86-5.47-5.77-8.3-8.57-4.37-4.33-6.3-4.3-10.77.17Q422.68,257.8,407.53,273c-9.64,9.65-19.24,19.33-28.95,28.91-3.19,3.14-3.78,6.11-.38,9.37l8.27,7.91c9.31,9.45,18.51,19,28,28.29,3.88,3.8,4.88,7.66,2.31,12.43-6,3.39-8.07,3.1-13-1.72q-9.86-9.68-19.73-19.33c-2.86-3-5.89-5.85-8.54-9-2.45-2.94-4.27-3.24-6.86-.08-6.76,8.25-15.63,11.81-26.3,11.93-14.14.16-28.27,1-42.42,1.34-13.75.38-25.62,5.1-35.41,14.84q-9.9,9.86-19.78,19.77c-8.12,8.12-16.27,16.22-24.34,24.38-3.86,3.9-5.07,8.66-3.15,13.78C219.05,420.6,222.44,423.84,228,424Zm24.17-85c-3-3.11-6.16-6.06-8.9-9.37-2.4-2.9-3.89-2.73-6.54,0-17.52,17.78-35.23,35.36-52.88,53-9.65,9.65-19.22,19.38-29,28.9-2.22,2.17-2.26,3.37,0,5.46,3,2.8,5.7,6,8.52,9.08,1.1,2.6,2.88,5.11,3.18,7.8,1.52,13.36,9.38,22.7,18.62,31.48,3,2.82,4.33,2.94,7.31,0,14.87-14.56,37.41-10.31,45.85,8.56,1.17,2.62,1.93,2.83,4.5,1.71,18.88-8.21,38.7,4.1,39.58,24.64a10,10,0,0,0,3.31,7.27q31.88,31.72,63.63,63.58a34,34,0,0,0,3.3,3A12.86,12.86,0,0,0,373.23,567c1.54-5.94-1.18-10.23-5.16-14.19q-33.79-33.71-67.5-67.49a23.22,23.22,0,0,1-3.59-4.11,6.74,6.74,0,0,1,1-8.71c2.4-2.55,5.41-3.39,8.59-1.59a22.59,22.59,0,0,1,4.58,3.78q41.55,41.49,83.06,83c1.17,1.18,2.32,2.4,3.59,3.47A13,13,0,0,0,419,548.33c-.76-3.42-3-5.82-5.42-8.19q-41.88-41.85-83.74-83.75a24.57,24.57,0,0,1-3.66-4.06,7.39,7.39,0,0,1,10.18-10.16,21.82,21.82,0,0,1,3.69,3.32q33.42,33.38,66.82,66.75a37.47,37.47,0,0,0,4.41,4,13,13,0,0,0,18-18.28,38.2,38.2,0,0,0-3.72-4c-27.33-27.33-54.76-54.55-81.87-82.09-4.19-4.26-7.67-5.55-13.62-4.05-17,4.28-34.33,4.15-51.63,2.33-5.19-.54-9.05.19-12.67,4.42-5.08,5.92-10.88,11.25-16.52,16.68-7.7,7.41-16.94,9.84-27.18,7.06-21-5.69-27.57-31.2-12.12-47,14.79-15.12,29.82-30,44.93-44.82,2.28-2.24,2.45-3.52,0-5.33C253.86,340.51,253,339.7,252.16,339Zm15.38,161.7c-.29-5.32-2.82-9.4-7.85-11.59-5.47-2.38-10.47-1.16-14.63,3q-24.93,24.8-49.72,49.72c-5.67,5.73-5.69,13.43-.5,18.71s13.14,5.34,18.75-.19c16.69-16.46,33.19-33.1,49.77-49.68A13.66,13.66,0,0,0,267.54,500.66Zm21.55,36.89c-.19-5.46-2.61-9.59-7.66-11.78-5.39-2.33-10.46-1.43-14.67,2.73q-14.7,14.54-29.25,29.24c-5.83,5.92-6,13.76-.7,19.07s13.08,5.27,19.09-.61c9.74-9.53,19.3-19.23,28.91-28.89A13.1,13.1,0,0,0,289.09,537.55Zm32.22-306c2.8-.32,5.7-.29,8.39-1,15.8-4.23,24.24-17,22.64-35.65-.15-1.68-.85-2.23-2.47-2.38-24.46-2.28-36.83,14.3-36.35,30.83C313.8,233,312.32,231.06,321.31,231.53Zm-61.63,3.56c-1.12,16.77,11.47,34,36.25,31.75,2-.18,2.36-1.09,2.56-2.82,2.4-20.92-10.9-36-31.81-36.07C259.64,227.94,259.64,227.94,259.68,235.09Zm25.89,364.35c6.48-.1,15.18-7.66,16.66-14.47a12.81,12.81,0,0,0-8.92-15.15c-7.63-2.29-18.22,4.62-20.46,13.36A13,13,0,0,0,285.57,599.44Zm31.95-13.51c8.52-3.53,11.3-13.08,5.39-19.64-6.18-6.87-13.23-12.94-20-19.48-1.48,2.7-3.08,5.64-4.7,8.59C312.13,561.56,317.91,570.64,317.52,585.93Z" transform="translate(-50.1 -177.1)"/><path class="cls03-2" d="M359,177.1a1,1,0,0,1,.06.78L338,178a1.75,1.75,0,0,0,0-.85Z" transform="translate(-50.1 -177.1)"/><path class="cls03-3" d="M252.16,339c.87.74,1.7,1.55,2.63,2.22,2.47,1.81,2.3,3.09,0,5.33-15.11,14.81-30.14,29.7-44.93,44.82-15.45,15.8-8.84,41.31,12.12,47,10.24,2.78,19.48.35,27.18-7.06,5.64-5.43,11.44-10.76,16.52-16.68,3.62-4.23,7.48-5,12.67-4.42,17.3,1.82,34.66,1.95,51.63-2.33,5.95-1.5,9.43-.21,13.62,4.05,27.11,27.54,54.54,54.76,81.87,82.09a38.2,38.2,0,0,1,3.72,4,13,13,0,0,1-18,18.28,37.47,37.47,0,0,1-4.41-4Q373.4,478.88,340,445.49a21.82,21.82,0,0,0-3.69-3.32,7.39,7.39,0,0,0-10.18,10.16,24.57,24.57,0,0,0,3.66,4.06q41.85,41.89,83.74,83.75c2.38,2.37,4.66,4.77,5.42,8.19a13,13,0,0,1-21.19,12.86c-1.27-1.07-2.42-2.29-3.59-3.47q-41.54-41.51-83.06-83a22.59,22.59,0,0,0-4.58-3.78c-3.18-1.8-6.19-1-8.59,1.59a6.74,6.74,0,0,0-1,8.71,23.22,23.22,0,0,0,3.59,4.11q33.72,33.77,67.5,67.49c4,4,6.7,8.25,5.16,14.19a12.86,12.86,0,0,1-20.56,7.11,34,34,0,0,1-3.3-3q-31.81-31.8-63.63-63.58a10,10,0,0,1-3.31-7.27c-.88-20.54-20.7-32.85-39.58-24.64-2.57,1.12-3.33.91-4.5-1.71-8.44-18.87-31-23.12-45.85-8.56-3,2.91-4.34,2.79-7.31,0-9.24-8.78-17.1-18.12-18.62-31.48-.3-2.69-2.08-5.2-3.18-7.8,2.22-.29,3.27-2.17,4.64-3.54q39.85-39.76,79.66-79.59C249.09,341.47,250.67,340.26,252.16,339Z" transform="translate(-50.1 -177.1)"/><path class="cls03-4" d="M456.94,251.06Q478,272,499.09,292.91q22.45,22.39,44.83,44.87c4.08,4.1,4.11,6,.09,10.05q-29.81,29.88-59.68,59.69c-3.84,3.82-6.15,3.74-10.12-.21-10.63-10.56-21.18-21.2-31.81-31.76-4.52-4.48-6.7-4.67-12.31-1.46L416.76,359.9c2.57-4.77,1.57-8.63-2.31-12.43-9.47-9.28-18.67-18.84-28-28.29,1.13-1.18,2.23-2.39,3.39-3.54Q421,284.46,452.2,253.27C453.54,251.93,454.89,250.79,456.94,251.06Z" transform="translate(-50.1 -177.1)"/><path class="cls03-4" d="M182.18,251l51.72,51.42c3.13,3.11,2.8,6-.22,9.06q-48.27,48.21-96.49,96.46c-2.82,2.83-5.77,3.33-8.71.38q-26.43-26.55-52.78-53.17c1.23-1.31,2.43-2.66,3.71-3.94q48.81-48.82,97.64-97.66C178.5,252.08,179.94,250.78,182.18,251Z" transform="translate(-50.1 -177.1)"/><path class="cls03-5" d="M416.76,359.9l13.33,14.19c-3.2,4.68-2,8.54,1.85,12.33,8.48,8.23,16.67,16.74,25.14,25,2.13,2.07,2.62,3.38.1,5.44-7.66,6.26-11.8,14.36-13.52,24.19-1.62,9.24-8.23,15.69-14.74,22-6.7,6.48-6.62,6.56-13.14,0l-62.85-62.82c6.24-3.63,12.17-7.23,17.32-11.93,4.31-3.94,5.11-8.22,2.13-11.69s-7.38-3.58-11.81.27c-15.05,13.07-33.21,17.65-52.44,19a174.09,174.09,0,0,1-37.34-1.46,9.73,9.73,0,0,0-9,3.06c-7.36,7.47-14.8,14.85-22.23,22.25-3.2,3.19-6.82,5.3-11.59,4.3-.37-3.71,1.67-6.22,4.11-8.65,15.1-15,30.24-30,45.17-45.2,10.82-11,24.12-16.21,39.16-17,13.75-.76,27.55-1.06,41.32-1,11.2,0,19.89-4.16,26.29-13.25q9.87,9.66,19.73,19.33C408.69,363,410.76,363.29,416.76,359.9Z" transform="translate(-50.1 -177.1)"/><path class="cls03-6" d="M384,338.85c-6.4,9.09-15.09,13.28-26.29,13.25-13.77,0-27.57.26-41.32,1-15,.82-28.34,6-39.16,17-14.93,15.19-30.07,30.17-45.17,45.2-2.44,2.43-4.48,4.94-4.11,8.65-5.55-.16-8.94-3.4-10.75-8.21-1.92-5.12-.71-9.88,3.15-13.78,8.07-8.16,16.22-16.26,24.34-24.38q9.89-9.9,19.78-19.77c9.79-9.74,21.66-14.46,35.41-14.84,14.15-.38,28.28-1.18,42.42-1.34,10.67-.12,19.54-3.68,26.3-11.93,2.59-3.16,4.41-2.86,6.86.08C378.15,333,381.18,335.85,384,338.85Z" transform="translate(-50.1 -177.1)"/><path class="cls03-2" d="M182.18,251c-2.24-.21-3.68,1.09-5.13,2.55q-48.81,48.84-97.64,97.66c-1.28,1.28-2.48,2.63-3.71,3.94-1.94-1.81-3.93-3.57-5.81-5.44-6.5-6.45-6.49-7.28-.17-13.6l36.75-36.75c3-3,5.92-5.86,8.82-8.85,4.25-4.37,4.38-7.14.69-12.22,5.48-3.67,9.14-9.31,14.35-13.27,6.2,2.95,7.75,2.7,12.69-2.21,6.83-6.8,13.61-13.65,20.46-20.43,4.18-4.15,6.19-4.13,10.41.06C176.71,245.22,179.42,248.13,182.18,251Z" transform="translate(-50.1 -177.1)"/><path class="cls03-7" d="M267.54,500.66a13.66,13.66,0,0,1-4.18,9.95c-16.58,16.58-33.08,33.22-49.77,49.68-5.61,5.53-13.64,5.38-18.75.19s-5.17-13,.5-18.71q24.74-25,49.72-49.72c4.16-4.14,9.16-5.36,14.63-3C264.72,491.26,267.25,495.34,267.54,500.66Z" transform="translate(-50.1 -177.1)"/><path class="cls03-5" d="M252.16,339c-1.49,1.3-3.07,2.51-4.47,3.91Q207.85,382.65,168,422.46c-1.37,1.37-2.42,3.25-4.64,3.54-2.82-3.05-5.47-6.28-8.52-9.08-2.28-2.09-2.24-3.29,0-5.46,9.77-9.52,19.34-19.25,29-28.9,17.65-17.65,35.36-35.23,52.88-53,2.65-2.69,4.14-2.86,6.54,0C246,332.9,249.17,335.85,252.16,339Z" transform="translate(-50.1 -177.1)"/><path class="cls03-2" d="M456.94,251.06c-2.05-.27-3.4.87-4.74,2.21q-31.15,31.2-62.34,62.37c-1.16,1.15-2.26,2.36-3.39,3.54l-8.27-7.91c-3.4-3.26-2.81-6.23.38-9.37,9.71-9.58,19.31-19.26,28.95-28.91q15.17-15.17,30.34-30.33c4.47-4.47,6.4-4.5,10.77-.17C451.47,245.29,454.18,248.2,456.94,251.06Z" transform="translate(-50.1 -177.1)"/><path class="cls03-7" d="M289.09,537.55a13.1,13.1,0,0,1-4.28,9.76c-9.61,9.66-19.17,19.36-28.91,28.89-6,5.88-13.71,6-19.09.61s-5.13-13.15.7-19.07Q252,543,266.76,528.5c4.21-4.16,9.28-5.06,14.67-2.73C286.48,528,288.9,532.09,289.09,537.55Z" transform="translate(-50.1 -177.1)"/><path class="cls03-8" d="M321.31,231.53c-9-.47-7.51,1.45-7.79-8.21-.48-16.53,11.89-33.11,36.35-30.83,1.62.15,2.32.7,2.47,2.38,1.6,18.65-6.84,31.42-22.64,35.65C327,231.24,324.11,231.21,321.31,231.53Z" transform="translate(-50.1 -177.1)"/><path class="cls03-8" d="M259.68,235.09c0-7.15,0-7.15,7-7.14,20.91,0,34.21,15.15,31.81,36.07-.2,1.73-.58,2.64-2.56,2.82C271.15,269.09,258.56,251.86,259.68,235.09Z" transform="translate(-50.1 -177.1)"/><path class="cls03-9" d="M186,522c-10-1.63-15-12.7-8.43-20.19A307.51,307.51,0,0,1,205,474.41c8-7,20.15-.15,20.17,8.5-4.18.08-7.12,2.64-9.84,5.29q-12.15,11.85-24,24C188.7,514.92,186.11,517.84,186,522Z" transform="translate(-50.1 -177.1)"/><path class="cls03-10" d="M285.57,599.44a13,13,0,0,1-12.72-16.26c2.24-8.74,12.83-15.65,20.46-13.36A12.81,12.81,0,0,1,302.23,585C300.75,591.78,292.05,599.34,285.57,599.44Z" transform="translate(-50.1 -177.1)"/><path class="cls03-7" d="M186,522c.09-4.19,2.68-7.11,5.33-9.82q11.86-12.15,24-24c2.72-2.65,5.66-5.21,9.84-5.29,1.23,4.52-.59,8.16-3.6,11.23q-12,12.25-24.32,24.31C194.2,521.48,190.54,523.24,186,522Z" transform="translate(-50.1 -177.1)"/><path class="cls03-11" d="M317.52,585.93c.39-15.29-5.39-24.37-19.34-30.53,1.62-2.95,3.22-5.89,4.7-8.59,6.8,6.54,13.85,12.61,20,19.48C328.82,572.85,326,582.4,317.52,585.93Z" transform="translate(-50.1 -177.1)"/></svg>